%TF.GenerationSoftware,KiCad,Pcbnew,(6.0.11)*%
%TF.CreationDate,2024-01-05T21:54:57+00:00*%
%TF.ProjectId,RJ21_RJ45_4_LINE,524a3231-5f52-44a3-9435-5f345f4c494e,rev?*%
%TF.SameCoordinates,Original*%
%TF.FileFunction,Drillmap*%
%TF.FilePolarity,Positive*%
%FSLAX45Y45*%
G04 Gerber Fmt 4.5, Leading zero omitted, Abs format (unit mm)*
G04 Created by KiCad (PCBNEW (6.0.11)) date 2024-01-05 21:54:57*
%MOMM*%
%LPD*%
G01*
G04 APERTURE LIST*
%ADD10C,0.050000*%
%ADD11C,0.200000*%
%ADD12C,0.320000*%
G04 APERTURE END LIST*
D10*
X18966000Y-7228000D02*
X10787134Y-7227866D01*
X19027000Y-7167000D02*
X19028000Y-4006000D01*
X10726134Y-7166866D02*
G75*
G03*
X10787134Y-7227866I60997J-4D01*
G01*
X10726134Y-7166866D02*
X10727134Y-4006133D01*
X18967000Y-3945000D02*
X10788134Y-3945133D01*
X10788134Y-3945133D02*
G75*
G03*
X10727134Y-4006133I-4J-60997D01*
G01*
X18966000Y-7228000D02*
G75*
G03*
X19027000Y-7167000I0J61000D01*
G01*
X19028000Y-4006000D02*
G75*
G03*
X18967000Y-3945000I-61000J0D01*
G01*
D11*
D12*
X11585658Y-6485000D02*
X11905658Y-6805000D01*
X11905658Y-6485000D02*
X11585658Y-6805000D01*
X12728658Y-6485000D02*
X13048658Y-6805000D01*
X13048658Y-6485000D02*
X12728658Y-6805000D01*
X13313075Y-6485000D02*
X13633075Y-6805000D01*
X13633075Y-6485000D02*
X13313075Y-6805000D01*
X14456075Y-6485000D02*
X14776075Y-6805000D01*
X14776075Y-6485000D02*
X14456075Y-6805000D01*
X15040492Y-6485000D02*
X15360492Y-6805000D01*
X15360492Y-6485000D02*
X15040492Y-6805000D01*
X16183492Y-6485000D02*
X16503492Y-6805000D01*
X16503492Y-6485000D02*
X16183492Y-6805000D01*
X16728242Y-6485000D02*
X17048242Y-6805000D01*
X17048242Y-6485000D02*
X16728242Y-6805000D01*
X17871242Y-6485000D02*
X18191242Y-6805000D01*
X18191242Y-6485000D02*
X17871242Y-6805000D01*
D11*
X10981253Y-7540976D02*
X10981253Y-7340976D01*
X11028872Y-7340976D01*
X11057443Y-7350500D01*
X11076491Y-7369548D01*
X11086014Y-7388595D01*
X11095538Y-7426690D01*
X11095538Y-7455262D01*
X11086014Y-7493357D01*
X11076491Y-7512405D01*
X11057443Y-7531452D01*
X11028872Y-7540976D01*
X10981253Y-7540976D01*
X11181253Y-7540976D02*
X11181253Y-7407643D01*
X11181253Y-7445738D02*
X11190776Y-7426690D01*
X11200300Y-7417167D01*
X11219348Y-7407643D01*
X11238395Y-7407643D01*
X11305062Y-7540976D02*
X11305062Y-7407643D01*
X11305062Y-7340976D02*
X11295538Y-7350500D01*
X11305062Y-7360024D01*
X11314586Y-7350500D01*
X11305062Y-7340976D01*
X11305062Y-7360024D01*
X11428871Y-7540976D02*
X11409824Y-7531452D01*
X11400300Y-7512405D01*
X11400300Y-7340976D01*
X11533633Y-7540976D02*
X11514586Y-7531452D01*
X11505062Y-7512405D01*
X11505062Y-7340976D01*
X11762205Y-7540976D02*
X11762205Y-7340976D01*
X11828871Y-7483833D01*
X11895538Y-7340976D01*
X11895538Y-7540976D01*
X12076491Y-7540976D02*
X12076491Y-7436214D01*
X12066967Y-7417167D01*
X12047919Y-7407643D01*
X12009824Y-7407643D01*
X11990776Y-7417167D01*
X12076491Y-7531452D02*
X12057443Y-7540976D01*
X12009824Y-7540976D01*
X11990776Y-7531452D01*
X11981252Y-7512405D01*
X11981252Y-7493357D01*
X11990776Y-7474309D01*
X12009824Y-7464786D01*
X12057443Y-7464786D01*
X12076491Y-7455262D01*
X12171729Y-7407643D02*
X12171729Y-7607643D01*
X12171729Y-7417167D02*
X12190776Y-7407643D01*
X12228871Y-7407643D01*
X12247919Y-7417167D01*
X12257443Y-7426690D01*
X12266967Y-7445738D01*
X12266967Y-7502881D01*
X12257443Y-7521928D01*
X12247919Y-7531452D01*
X12228871Y-7540976D01*
X12190776Y-7540976D01*
X12171729Y-7531452D01*
X12352681Y-7521928D02*
X12362205Y-7531452D01*
X12352681Y-7540976D01*
X12343157Y-7531452D01*
X12352681Y-7521928D01*
X12352681Y-7540976D01*
X12352681Y-7417167D02*
X12362205Y-7426690D01*
X12352681Y-7436214D01*
X12343157Y-7426690D01*
X12352681Y-7417167D01*
X12352681Y-7436214D01*
X10523634Y-7770500D02*
X10723634Y-7970500D01*
X10723634Y-7770500D02*
X10523634Y-7970500D01*
X10962205Y-7760976D02*
X11086014Y-7760976D01*
X11019348Y-7837167D01*
X11047919Y-7837167D01*
X11066967Y-7846690D01*
X11076491Y-7856214D01*
X11086014Y-7875262D01*
X11086014Y-7922881D01*
X11076491Y-7941928D01*
X11066967Y-7951452D01*
X11047919Y-7960976D01*
X10990776Y-7960976D01*
X10971729Y-7951452D01*
X10962205Y-7941928D01*
X11171729Y-7941928D02*
X11181253Y-7951452D01*
X11171729Y-7960976D01*
X11162205Y-7951452D01*
X11171729Y-7941928D01*
X11171729Y-7960976D01*
X11257443Y-7780024D02*
X11266967Y-7770500D01*
X11286014Y-7760976D01*
X11333633Y-7760976D01*
X11352681Y-7770500D01*
X11362205Y-7780024D01*
X11371729Y-7799071D01*
X11371729Y-7818119D01*
X11362205Y-7846690D01*
X11247919Y-7960976D01*
X11371729Y-7960976D01*
X11495538Y-7760976D02*
X11514586Y-7760976D01*
X11533633Y-7770500D01*
X11543157Y-7780024D01*
X11552681Y-7799071D01*
X11562205Y-7837167D01*
X11562205Y-7884786D01*
X11552681Y-7922881D01*
X11543157Y-7941928D01*
X11533633Y-7951452D01*
X11514586Y-7960976D01*
X11495538Y-7960976D01*
X11476491Y-7951452D01*
X11466967Y-7941928D01*
X11457443Y-7922881D01*
X11447919Y-7884786D01*
X11447919Y-7837167D01*
X11457443Y-7799071D01*
X11466967Y-7780024D01*
X11476491Y-7770500D01*
X11495538Y-7760976D01*
X11686014Y-7760976D02*
X11705062Y-7760976D01*
X11724110Y-7770500D01*
X11733633Y-7780024D01*
X11743157Y-7799071D01*
X11752681Y-7837167D01*
X11752681Y-7884786D01*
X11743157Y-7922881D01*
X11733633Y-7941928D01*
X11724110Y-7951452D01*
X11705062Y-7960976D01*
X11686014Y-7960976D01*
X11666967Y-7951452D01*
X11657443Y-7941928D01*
X11647919Y-7922881D01*
X11638395Y-7884786D01*
X11638395Y-7837167D01*
X11647919Y-7799071D01*
X11657443Y-7780024D01*
X11666967Y-7770500D01*
X11686014Y-7760976D01*
X11838395Y-7960976D02*
X11838395Y-7827643D01*
X11838395Y-7846690D02*
X11847919Y-7837167D01*
X11866967Y-7827643D01*
X11895538Y-7827643D01*
X11914586Y-7837167D01*
X11924110Y-7856214D01*
X11924110Y-7960976D01*
X11924110Y-7856214D02*
X11933633Y-7837167D01*
X11952681Y-7827643D01*
X11981252Y-7827643D01*
X12000300Y-7837167D01*
X12009824Y-7856214D01*
X12009824Y-7960976D01*
X12105062Y-7960976D02*
X12105062Y-7827643D01*
X12105062Y-7846690D02*
X12114586Y-7837167D01*
X12133633Y-7827643D01*
X12162205Y-7827643D01*
X12181252Y-7837167D01*
X12190776Y-7856214D01*
X12190776Y-7960976D01*
X12190776Y-7856214D02*
X12200300Y-7837167D01*
X12219348Y-7827643D01*
X12247919Y-7827643D01*
X12266967Y-7837167D01*
X12276491Y-7856214D01*
X12276491Y-7960976D01*
X12666967Y-7751452D02*
X12495538Y-8008595D01*
X12924110Y-7760976D02*
X12943157Y-7760976D01*
X12962205Y-7770500D01*
X12971729Y-7780024D01*
X12981252Y-7799071D01*
X12990776Y-7837167D01*
X12990776Y-7884786D01*
X12981252Y-7922881D01*
X12971729Y-7941928D01*
X12962205Y-7951452D01*
X12943157Y-7960976D01*
X12924110Y-7960976D01*
X12905062Y-7951452D01*
X12895538Y-7941928D01*
X12886014Y-7922881D01*
X12876491Y-7884786D01*
X12876491Y-7837167D01*
X12886014Y-7799071D01*
X12895538Y-7780024D01*
X12905062Y-7770500D01*
X12924110Y-7760976D01*
X13076491Y-7941928D02*
X13086014Y-7951452D01*
X13076491Y-7960976D01*
X13066967Y-7951452D01*
X13076491Y-7941928D01*
X13076491Y-7960976D01*
X13276491Y-7960976D02*
X13162205Y-7960976D01*
X13219348Y-7960976D02*
X13219348Y-7760976D01*
X13200300Y-7789548D01*
X13181252Y-7808595D01*
X13162205Y-7818119D01*
X13352681Y-7780024D02*
X13362205Y-7770500D01*
X13381252Y-7760976D01*
X13428871Y-7760976D01*
X13447919Y-7770500D01*
X13457443Y-7780024D01*
X13466967Y-7799071D01*
X13466967Y-7818119D01*
X13457443Y-7846690D01*
X13343157Y-7960976D01*
X13466967Y-7960976D01*
X13638395Y-7760976D02*
X13600300Y-7760976D01*
X13581252Y-7770500D01*
X13571729Y-7780024D01*
X13552681Y-7808595D01*
X13543157Y-7846690D01*
X13543157Y-7922881D01*
X13552681Y-7941928D01*
X13562205Y-7951452D01*
X13581252Y-7960976D01*
X13619348Y-7960976D01*
X13638395Y-7951452D01*
X13647919Y-7941928D01*
X13657443Y-7922881D01*
X13657443Y-7875262D01*
X13647919Y-7856214D01*
X13638395Y-7846690D01*
X13619348Y-7837167D01*
X13581252Y-7837167D01*
X13562205Y-7846690D01*
X13552681Y-7856214D01*
X13543157Y-7875262D01*
X13781252Y-7760976D02*
X13800300Y-7760976D01*
X13819348Y-7770500D01*
X13828871Y-7780024D01*
X13838395Y-7799071D01*
X13847919Y-7837167D01*
X13847919Y-7884786D01*
X13838395Y-7922881D01*
X13828871Y-7941928D01*
X13819348Y-7951452D01*
X13800300Y-7960976D01*
X13781252Y-7960976D01*
X13762205Y-7951452D01*
X13752681Y-7941928D01*
X13743157Y-7922881D01*
X13733633Y-7884786D01*
X13733633Y-7837167D01*
X13743157Y-7799071D01*
X13752681Y-7780024D01*
X13762205Y-7770500D01*
X13781252Y-7760976D01*
X13924110Y-7760976D02*
X13924110Y-7799071D01*
X14000300Y-7760976D02*
X14000300Y-7799071D01*
X14295538Y-8037167D02*
X14286014Y-8027643D01*
X14266967Y-7999071D01*
X14257443Y-7980024D01*
X14247919Y-7951452D01*
X14238395Y-7903833D01*
X14238395Y-7865738D01*
X14247919Y-7818119D01*
X14257443Y-7789548D01*
X14266967Y-7770500D01*
X14286014Y-7741928D01*
X14295538Y-7732405D01*
X14400300Y-7846690D02*
X14381252Y-7837167D01*
X14371729Y-7827643D01*
X14362205Y-7808595D01*
X14362205Y-7799071D01*
X14371729Y-7780024D01*
X14381252Y-7770500D01*
X14400300Y-7760976D01*
X14438395Y-7760976D01*
X14457443Y-7770500D01*
X14466967Y-7780024D01*
X14476491Y-7799071D01*
X14476491Y-7808595D01*
X14466967Y-7827643D01*
X14457443Y-7837167D01*
X14438395Y-7846690D01*
X14400300Y-7846690D01*
X14381252Y-7856214D01*
X14371729Y-7865738D01*
X14362205Y-7884786D01*
X14362205Y-7922881D01*
X14371729Y-7941928D01*
X14381252Y-7951452D01*
X14400300Y-7960976D01*
X14438395Y-7960976D01*
X14457443Y-7951452D01*
X14466967Y-7941928D01*
X14476491Y-7922881D01*
X14476491Y-7884786D01*
X14466967Y-7865738D01*
X14457443Y-7856214D01*
X14438395Y-7846690D01*
X14714586Y-7960976D02*
X14714586Y-7760976D01*
X14800300Y-7960976D02*
X14800300Y-7856214D01*
X14790776Y-7837167D01*
X14771729Y-7827643D01*
X14743157Y-7827643D01*
X14724110Y-7837167D01*
X14714586Y-7846690D01*
X14924110Y-7960976D02*
X14905062Y-7951452D01*
X14895538Y-7941928D01*
X14886014Y-7922881D01*
X14886014Y-7865738D01*
X14895538Y-7846690D01*
X14905062Y-7837167D01*
X14924110Y-7827643D01*
X14952681Y-7827643D01*
X14971729Y-7837167D01*
X14981252Y-7846690D01*
X14990776Y-7865738D01*
X14990776Y-7922881D01*
X14981252Y-7941928D01*
X14971729Y-7951452D01*
X14952681Y-7960976D01*
X14924110Y-7960976D01*
X15105062Y-7960976D02*
X15086014Y-7951452D01*
X15076491Y-7932405D01*
X15076491Y-7760976D01*
X15257443Y-7951452D02*
X15238395Y-7960976D01*
X15200300Y-7960976D01*
X15181252Y-7951452D01*
X15171729Y-7932405D01*
X15171729Y-7856214D01*
X15181252Y-7837167D01*
X15200300Y-7827643D01*
X15238395Y-7827643D01*
X15257443Y-7837167D01*
X15266967Y-7856214D01*
X15266967Y-7875262D01*
X15171729Y-7894309D01*
X15343157Y-7951452D02*
X15362205Y-7960976D01*
X15400300Y-7960976D01*
X15419348Y-7951452D01*
X15428871Y-7932405D01*
X15428871Y-7922881D01*
X15419348Y-7903833D01*
X15400300Y-7894309D01*
X15371729Y-7894309D01*
X15352681Y-7884786D01*
X15343157Y-7865738D01*
X15343157Y-7856214D01*
X15352681Y-7837167D01*
X15371729Y-7827643D01*
X15400300Y-7827643D01*
X15419348Y-7837167D01*
X15495538Y-8037167D02*
X15505062Y-8027643D01*
X15524110Y-7999071D01*
X15533633Y-7980024D01*
X15543157Y-7951452D01*
X15552681Y-7903833D01*
X15552681Y-7865738D01*
X15543157Y-7818119D01*
X15533633Y-7789548D01*
X15524110Y-7770500D01*
X15505062Y-7741928D01*
X15495538Y-7732405D01*
X15857443Y-8037167D02*
X15847919Y-8027643D01*
X15828871Y-7999071D01*
X15819348Y-7980024D01*
X15809824Y-7951452D01*
X15800300Y-7903833D01*
X15800300Y-7865738D01*
X15809824Y-7818119D01*
X15819348Y-7789548D01*
X15828871Y-7770500D01*
X15847919Y-7741928D01*
X15857443Y-7732405D01*
X15933633Y-7827643D02*
X15933633Y-7960976D01*
X15933633Y-7846690D02*
X15943157Y-7837167D01*
X15962205Y-7827643D01*
X15990776Y-7827643D01*
X16009824Y-7837167D01*
X16019348Y-7856214D01*
X16019348Y-7960976D01*
X16143157Y-7960976D02*
X16124110Y-7951452D01*
X16114586Y-7941928D01*
X16105062Y-7922881D01*
X16105062Y-7865738D01*
X16114586Y-7846690D01*
X16124110Y-7837167D01*
X16143157Y-7827643D01*
X16171729Y-7827643D01*
X16190776Y-7837167D01*
X16200300Y-7846690D01*
X16209824Y-7865738D01*
X16209824Y-7922881D01*
X16200300Y-7941928D01*
X16190776Y-7951452D01*
X16171729Y-7960976D01*
X16143157Y-7960976D01*
X16266967Y-7827643D02*
X16343157Y-7827643D01*
X16295538Y-7760976D02*
X16295538Y-7932405D01*
X16305062Y-7951452D01*
X16324110Y-7960976D01*
X16343157Y-7960976D01*
X16562205Y-7827643D02*
X16562205Y-8027643D01*
X16562205Y-7837167D02*
X16581252Y-7827643D01*
X16619348Y-7827643D01*
X16638395Y-7837167D01*
X16647919Y-7846690D01*
X16657443Y-7865738D01*
X16657443Y-7922881D01*
X16647919Y-7941928D01*
X16638395Y-7951452D01*
X16619348Y-7960976D01*
X16581252Y-7960976D01*
X16562205Y-7951452D01*
X16771729Y-7960976D02*
X16752681Y-7951452D01*
X16743157Y-7932405D01*
X16743157Y-7760976D01*
X16933633Y-7960976D02*
X16933633Y-7856214D01*
X16924110Y-7837167D01*
X16905062Y-7827643D01*
X16866967Y-7827643D01*
X16847919Y-7837167D01*
X16933633Y-7951452D02*
X16914586Y-7960976D01*
X16866967Y-7960976D01*
X16847919Y-7951452D01*
X16838395Y-7932405D01*
X16838395Y-7913357D01*
X16847919Y-7894309D01*
X16866967Y-7884786D01*
X16914586Y-7884786D01*
X16933633Y-7875262D01*
X17000300Y-7827643D02*
X17076491Y-7827643D01*
X17028872Y-7760976D02*
X17028872Y-7932405D01*
X17038395Y-7951452D01*
X17057443Y-7960976D01*
X17076491Y-7960976D01*
X17219348Y-7951452D02*
X17200300Y-7960976D01*
X17162205Y-7960976D01*
X17143157Y-7951452D01*
X17133633Y-7932405D01*
X17133633Y-7856214D01*
X17143157Y-7837167D01*
X17162205Y-7827643D01*
X17200300Y-7827643D01*
X17219348Y-7837167D01*
X17228872Y-7856214D01*
X17228872Y-7875262D01*
X17133633Y-7894309D01*
X17400300Y-7960976D02*
X17400300Y-7760976D01*
X17400300Y-7951452D02*
X17381253Y-7960976D01*
X17343157Y-7960976D01*
X17324110Y-7951452D01*
X17314586Y-7941928D01*
X17305062Y-7922881D01*
X17305062Y-7865738D01*
X17314586Y-7846690D01*
X17324110Y-7837167D01*
X17343157Y-7827643D01*
X17381253Y-7827643D01*
X17400300Y-7837167D01*
X17476491Y-8037167D02*
X17486014Y-8027643D01*
X17505062Y-7999071D01*
X17514586Y-7980024D01*
X17524110Y-7951452D01*
X17533633Y-7903833D01*
X17533633Y-7865738D01*
X17524110Y-7818119D01*
X17514586Y-7789548D01*
X17505062Y-7770500D01*
X17486014Y-7741928D01*
X17476491Y-7732405D01*
M02*
