%TF.GenerationSoftware,KiCad,Pcbnew,(6.0.11)*%
%TF.CreationDate,2024-01-05T21:54:57+00:00*%
%TF.ProjectId,RJ21_RJ45_4_LINE,524a3231-5f52-44a3-9435-5f345f4c494e,rev?*%
%TF.SameCoordinates,Original*%
%TF.FileFunction,Drillmap*%
%TF.FilePolarity,Positive*%
%FSLAX45Y45*%
G04 Gerber Fmt 4.5, Leading zero omitted, Abs format (unit mm)*
G04 Created by KiCad (PCBNEW (6.0.11)) date 2024-01-05 21:54:57*
%MOMM*%
%LPD*%
G01*
G04 APERTURE LIST*
%ADD10C,0.050000*%
%ADD11C,0.200000*%
%ADD12C,0.080000*%
%ADD13C,0.090000*%
%ADD14C,0.280000*%
G04 APERTURE END LIST*
D10*
X18966000Y-7228000D02*
X10787134Y-7227866D01*
X19027000Y-7167000D02*
X19028000Y-4006000D01*
X10726134Y-7166866D02*
G75*
G03*
X10787134Y-7227866I60997J-4D01*
G01*
X10726134Y-7166866D02*
X10727134Y-4006133D01*
X18967000Y-3945000D02*
X10788134Y-3945133D01*
X10788134Y-3945133D02*
G75*
G03*
X10727134Y-4006133I-4J-60997D01*
G01*
X18966000Y-7228000D02*
G75*
G03*
X19027000Y-7167000I0J61000D01*
G01*
X19028000Y-4006000D02*
G75*
G03*
X18967000Y-3945000I-61000J0D01*
G01*
D11*
D12*
X12244475Y-4778861D02*
X12324475Y-4858861D01*
X12324475Y-4778861D02*
X12244475Y-4858861D01*
X12244475Y-5207861D02*
X12324475Y-5287861D01*
X12324475Y-5207861D02*
X12244475Y-5287861D01*
X12460475Y-4778861D02*
X12540475Y-4858861D01*
X12540475Y-4778861D02*
X12460475Y-4858861D01*
X12460475Y-5207861D02*
X12540475Y-5287861D01*
X12540475Y-5207861D02*
X12460475Y-5287861D01*
X12676476Y-4778861D02*
X12756476Y-4858861D01*
X12756476Y-4778861D02*
X12676476Y-4858861D01*
X12676476Y-5207861D02*
X12756476Y-5287861D01*
X12756476Y-5207861D02*
X12676476Y-5287861D01*
X12892476Y-4778861D02*
X12972476Y-4858861D01*
X12972476Y-4778861D02*
X12892476Y-4858861D01*
X12892476Y-5207861D02*
X12972476Y-5287861D01*
X12972476Y-5207861D02*
X12892476Y-5287861D01*
X13108477Y-4778861D02*
X13188477Y-4858861D01*
X13188477Y-4778861D02*
X13108477Y-4858861D01*
X13108477Y-5207861D02*
X13188477Y-5287861D01*
X13188477Y-5207861D02*
X13108477Y-5287861D01*
X13324477Y-4778861D02*
X13404477Y-4858861D01*
X13404477Y-4778861D02*
X13324477Y-4858861D01*
X13324477Y-5207861D02*
X13404477Y-5287861D01*
X13404477Y-5207861D02*
X13324477Y-5287861D01*
X13540478Y-4778861D02*
X13620478Y-4858861D01*
X13620478Y-4778861D02*
X13540478Y-4858861D01*
X13540478Y-5207861D02*
X13620478Y-5287861D01*
X13620478Y-5207861D02*
X13540478Y-5287861D01*
X13756478Y-4778861D02*
X13836478Y-4858861D01*
X13836478Y-4778861D02*
X13756478Y-4858861D01*
X13756478Y-5207861D02*
X13836478Y-5287861D01*
X13836478Y-5207861D02*
X13756478Y-5287861D01*
X13972478Y-4778861D02*
X14052478Y-4858861D01*
X14052478Y-4778861D02*
X13972478Y-4858861D01*
X13972478Y-5207861D02*
X14052478Y-5287861D01*
X14052478Y-5207861D02*
X13972478Y-5287861D01*
X14188479Y-4778861D02*
X14268479Y-4858861D01*
X14268479Y-4778861D02*
X14188479Y-4858861D01*
X14188479Y-5207861D02*
X14268479Y-5287861D01*
X14268479Y-5207861D02*
X14188479Y-5287861D01*
X14404479Y-4778861D02*
X14484479Y-4858861D01*
X14484479Y-4778861D02*
X14404479Y-4858861D01*
X14404479Y-5207861D02*
X14484479Y-5287861D01*
X14484479Y-5207861D02*
X14404479Y-5287861D01*
X14620479Y-4778861D02*
X14700479Y-4858861D01*
X14700479Y-4778861D02*
X14620479Y-4858861D01*
X14620479Y-5207861D02*
X14700479Y-5287861D01*
X14700479Y-5207861D02*
X14620479Y-5287861D01*
X14836480Y-4778861D02*
X14916480Y-4858861D01*
X14916480Y-4778861D02*
X14836480Y-4858861D01*
X14836480Y-5207861D02*
X14916480Y-5287861D01*
X14916480Y-5207861D02*
X14836480Y-5287861D01*
X15052480Y-4778861D02*
X15132480Y-4858861D01*
X15132480Y-4778861D02*
X15052480Y-4858861D01*
X15052480Y-5207861D02*
X15132480Y-5287861D01*
X15132480Y-5207861D02*
X15052480Y-5287861D01*
X15268482Y-4778861D02*
X15348482Y-4858861D01*
X15348482Y-4778861D02*
X15268482Y-4858861D01*
X15268482Y-5207861D02*
X15348482Y-5287861D01*
X15348482Y-5207861D02*
X15268482Y-5287861D01*
X15484482Y-4778861D02*
X15564482Y-4858861D01*
X15564482Y-4778861D02*
X15484482Y-4858861D01*
X15484482Y-5207861D02*
X15564482Y-5287861D01*
X15564482Y-5207861D02*
X15484482Y-5287861D01*
X15700483Y-4778861D02*
X15780483Y-4858861D01*
X15780483Y-4778861D02*
X15700483Y-4858861D01*
X15700483Y-5207861D02*
X15780483Y-5287861D01*
X15780483Y-5207861D02*
X15700483Y-5287861D01*
X15916482Y-4778861D02*
X15996482Y-4858861D01*
X15996482Y-4778861D02*
X15916482Y-4858861D01*
X15916482Y-5207861D02*
X15996482Y-5287861D01*
X15996482Y-5207861D02*
X15916482Y-5287861D01*
X16132482Y-4778861D02*
X16212482Y-4858861D01*
X16212482Y-4778861D02*
X16132482Y-4858861D01*
X16132482Y-5207861D02*
X16212482Y-5287861D01*
X16212482Y-5207861D02*
X16132482Y-5287861D01*
X16348483Y-4778861D02*
X16428483Y-4858861D01*
X16428483Y-4778861D02*
X16348483Y-4858861D01*
X16348483Y-5207861D02*
X16428483Y-5287861D01*
X16428483Y-5207861D02*
X16348483Y-5287861D01*
X16564483Y-4778861D02*
X16644483Y-4858861D01*
X16644483Y-4778861D02*
X16564483Y-4858861D01*
X16564483Y-5207861D02*
X16644483Y-5287861D01*
X16644483Y-5207861D02*
X16564483Y-5287861D01*
X16780484Y-4778861D02*
X16860484Y-4858861D01*
X16860484Y-4778861D02*
X16780484Y-4858861D01*
X16780484Y-5207861D02*
X16860484Y-5287861D01*
X16860484Y-5207861D02*
X16780484Y-5287861D01*
X16996483Y-4778861D02*
X17076483Y-4858861D01*
X17076483Y-4778861D02*
X16996483Y-4858861D01*
X16996483Y-5207861D02*
X17076483Y-5287861D01*
X17076483Y-5207861D02*
X16996483Y-5287861D01*
X17212484Y-4778861D02*
X17292484Y-4858861D01*
X17292484Y-4778861D02*
X17212484Y-4858861D01*
X17212484Y-5207861D02*
X17292484Y-5287861D01*
X17292484Y-5207861D02*
X17212484Y-5287861D01*
X17428484Y-4778861D02*
X17508484Y-4858861D01*
X17508484Y-4778861D02*
X17428484Y-4858861D01*
X17428484Y-5207861D02*
X17508484Y-5287861D01*
X17508484Y-5207861D02*
X17428484Y-5287861D01*
D13*
X11917658Y-6010000D02*
G75*
G03*
X11917658Y-6010000I-45000J0D01*
G01*
X12044658Y-5756000D02*
G75*
G03*
X12044658Y-5756000I-45000J0D01*
G01*
X12171658Y-6010000D02*
G75*
G03*
X12171658Y-6010000I-45000J0D01*
G01*
X12298658Y-5756000D02*
G75*
G03*
X12298658Y-5756000I-45000J0D01*
G01*
X12425658Y-6010000D02*
G75*
G03*
X12425658Y-6010000I-45000J0D01*
G01*
X12552658Y-5756000D02*
G75*
G03*
X12552658Y-5756000I-45000J0D01*
G01*
X12679658Y-6010000D02*
G75*
G03*
X12679658Y-6010000I-45000J0D01*
G01*
X12806658Y-5756000D02*
G75*
G03*
X12806658Y-5756000I-45000J0D01*
G01*
X13645075Y-6010000D02*
G75*
G03*
X13645075Y-6010000I-45000J0D01*
G01*
X13772075Y-5756000D02*
G75*
G03*
X13772075Y-5756000I-45000J0D01*
G01*
X13899075Y-6010000D02*
G75*
G03*
X13899075Y-6010000I-45000J0D01*
G01*
X14026075Y-5756000D02*
G75*
G03*
X14026075Y-5756000I-45000J0D01*
G01*
X14153075Y-6010000D02*
G75*
G03*
X14153075Y-6010000I-45000J0D01*
G01*
X14280075Y-5756000D02*
G75*
G03*
X14280075Y-5756000I-45000J0D01*
G01*
X14407075Y-6010000D02*
G75*
G03*
X14407075Y-6010000I-45000J0D01*
G01*
X14534075Y-5756000D02*
G75*
G03*
X14534075Y-5756000I-45000J0D01*
G01*
X15372492Y-6010000D02*
G75*
G03*
X15372492Y-6010000I-45000J0D01*
G01*
X15499492Y-5756000D02*
G75*
G03*
X15499492Y-5756000I-45000J0D01*
G01*
X15626492Y-6010000D02*
G75*
G03*
X15626492Y-6010000I-45000J0D01*
G01*
X15753492Y-5756000D02*
G75*
G03*
X15753492Y-5756000I-45000J0D01*
G01*
X15880492Y-6010000D02*
G75*
G03*
X15880492Y-6010000I-45000J0D01*
G01*
X16007492Y-5756000D02*
G75*
G03*
X16007492Y-5756000I-45000J0D01*
G01*
X16134492Y-6010000D02*
G75*
G03*
X16134492Y-6010000I-45000J0D01*
G01*
X16261492Y-5756000D02*
G75*
G03*
X16261492Y-5756000I-45000J0D01*
G01*
X17060242Y-6010000D02*
G75*
G03*
X17060242Y-6010000I-45000J0D01*
G01*
X17187242Y-5756000D02*
G75*
G03*
X17187242Y-5756000I-45000J0D01*
G01*
X17314242Y-6010000D02*
G75*
G03*
X17314242Y-6010000I-45000J0D01*
G01*
X17441242Y-5756000D02*
G75*
G03*
X17441242Y-5756000I-45000J0D01*
G01*
X17568242Y-6010000D02*
G75*
G03*
X17568242Y-6010000I-45000J0D01*
G01*
X17695242Y-5756000D02*
G75*
G03*
X17695242Y-5756000I-45000J0D01*
G01*
X17822242Y-6010000D02*
G75*
G03*
X17822242Y-6010000I-45000J0D01*
G01*
X17949242Y-5756000D02*
G75*
G03*
X17949242Y-5756000I-45000J0D01*
G01*
D14*
X11133980Y-4893360D02*
X11133980Y-5173360D01*
X10993980Y-5033360D02*
X11273980Y-5033360D01*
X18618980Y-4893360D02*
X18618980Y-5173360D01*
X18478980Y-5033360D02*
X18758980Y-5033360D01*
D11*
X10981253Y-7540976D02*
X10981253Y-7340976D01*
X11028872Y-7340976D01*
X11057443Y-7350500D01*
X11076491Y-7369548D01*
X11086014Y-7388595D01*
X11095538Y-7426690D01*
X11095538Y-7455262D01*
X11086014Y-7493357D01*
X11076491Y-7512405D01*
X11057443Y-7531452D01*
X11028872Y-7540976D01*
X10981253Y-7540976D01*
X11181253Y-7540976D02*
X11181253Y-7407643D01*
X11181253Y-7445738D02*
X11190776Y-7426690D01*
X11200300Y-7417167D01*
X11219348Y-7407643D01*
X11238395Y-7407643D01*
X11305062Y-7540976D02*
X11305062Y-7407643D01*
X11305062Y-7340976D02*
X11295538Y-7350500D01*
X11305062Y-7360024D01*
X11314586Y-7350500D01*
X11305062Y-7340976D01*
X11305062Y-7360024D01*
X11428871Y-7540976D02*
X11409824Y-7531452D01*
X11400300Y-7512405D01*
X11400300Y-7340976D01*
X11533633Y-7540976D02*
X11514586Y-7531452D01*
X11505062Y-7512405D01*
X11505062Y-7340976D01*
X11762205Y-7540976D02*
X11762205Y-7340976D01*
X11828871Y-7483833D01*
X11895538Y-7340976D01*
X11895538Y-7540976D01*
X12076491Y-7540976D02*
X12076491Y-7436214D01*
X12066967Y-7417167D01*
X12047919Y-7407643D01*
X12009824Y-7407643D01*
X11990776Y-7417167D01*
X12076491Y-7531452D02*
X12057443Y-7540976D01*
X12009824Y-7540976D01*
X11990776Y-7531452D01*
X11981252Y-7512405D01*
X11981252Y-7493357D01*
X11990776Y-7474309D01*
X12009824Y-7464786D01*
X12057443Y-7464786D01*
X12076491Y-7455262D01*
X12171729Y-7407643D02*
X12171729Y-7607643D01*
X12171729Y-7417167D02*
X12190776Y-7407643D01*
X12228871Y-7407643D01*
X12247919Y-7417167D01*
X12257443Y-7426690D01*
X12266967Y-7445738D01*
X12266967Y-7502881D01*
X12257443Y-7521928D01*
X12247919Y-7531452D01*
X12228871Y-7540976D01*
X12190776Y-7540976D01*
X12171729Y-7531452D01*
X12352681Y-7521928D02*
X12362205Y-7531452D01*
X12352681Y-7540976D01*
X12343157Y-7531452D01*
X12352681Y-7521928D01*
X12352681Y-7540976D01*
X12352681Y-7417167D02*
X12362205Y-7426690D01*
X12352681Y-7436214D01*
X12343157Y-7426690D01*
X12352681Y-7417167D01*
X12352681Y-7436214D01*
D12*
X10643634Y-7830500D02*
X10723634Y-7910500D01*
X10723634Y-7830500D02*
X10643634Y-7910500D01*
D11*
X11019348Y-7760976D02*
X11038395Y-7760976D01*
X11057443Y-7770500D01*
X11066967Y-7780024D01*
X11076491Y-7799071D01*
X11086014Y-7837167D01*
X11086014Y-7884786D01*
X11076491Y-7922881D01*
X11066967Y-7941928D01*
X11057443Y-7951452D01*
X11038395Y-7960976D01*
X11019348Y-7960976D01*
X11000300Y-7951452D01*
X10990776Y-7941928D01*
X10981253Y-7922881D01*
X10971729Y-7884786D01*
X10971729Y-7837167D01*
X10981253Y-7799071D01*
X10990776Y-7780024D01*
X11000300Y-7770500D01*
X11019348Y-7760976D01*
X11171729Y-7941928D02*
X11181253Y-7951452D01*
X11171729Y-7960976D01*
X11162205Y-7951452D01*
X11171729Y-7941928D01*
X11171729Y-7960976D01*
X11295538Y-7846690D02*
X11276491Y-7837167D01*
X11266967Y-7827643D01*
X11257443Y-7808595D01*
X11257443Y-7799071D01*
X11266967Y-7780024D01*
X11276491Y-7770500D01*
X11295538Y-7760976D01*
X11333633Y-7760976D01*
X11352681Y-7770500D01*
X11362205Y-7780024D01*
X11371729Y-7799071D01*
X11371729Y-7808595D01*
X11362205Y-7827643D01*
X11352681Y-7837167D01*
X11333633Y-7846690D01*
X11295538Y-7846690D01*
X11276491Y-7856214D01*
X11266967Y-7865738D01*
X11257443Y-7884786D01*
X11257443Y-7922881D01*
X11266967Y-7941928D01*
X11276491Y-7951452D01*
X11295538Y-7960976D01*
X11333633Y-7960976D01*
X11352681Y-7951452D01*
X11362205Y-7941928D01*
X11371729Y-7922881D01*
X11371729Y-7884786D01*
X11362205Y-7865738D01*
X11352681Y-7856214D01*
X11333633Y-7846690D01*
X11495538Y-7760976D02*
X11514586Y-7760976D01*
X11533633Y-7770500D01*
X11543157Y-7780024D01*
X11552681Y-7799071D01*
X11562205Y-7837167D01*
X11562205Y-7884786D01*
X11552681Y-7922881D01*
X11543157Y-7941928D01*
X11533633Y-7951452D01*
X11514586Y-7960976D01*
X11495538Y-7960976D01*
X11476491Y-7951452D01*
X11466967Y-7941928D01*
X11457443Y-7922881D01*
X11447919Y-7884786D01*
X11447919Y-7837167D01*
X11457443Y-7799071D01*
X11466967Y-7780024D01*
X11476491Y-7770500D01*
X11495538Y-7760976D01*
X11686014Y-7760976D02*
X11705062Y-7760976D01*
X11724110Y-7770500D01*
X11733633Y-7780024D01*
X11743157Y-7799071D01*
X11752681Y-7837167D01*
X11752681Y-7884786D01*
X11743157Y-7922881D01*
X11733633Y-7941928D01*
X11724110Y-7951452D01*
X11705062Y-7960976D01*
X11686014Y-7960976D01*
X11666967Y-7951452D01*
X11657443Y-7941928D01*
X11647919Y-7922881D01*
X11638395Y-7884786D01*
X11638395Y-7837167D01*
X11647919Y-7799071D01*
X11657443Y-7780024D01*
X11666967Y-7770500D01*
X11686014Y-7760976D01*
X11838395Y-7960976D02*
X11838395Y-7827643D01*
X11838395Y-7846690D02*
X11847919Y-7837167D01*
X11866967Y-7827643D01*
X11895538Y-7827643D01*
X11914586Y-7837167D01*
X11924110Y-7856214D01*
X11924110Y-7960976D01*
X11924110Y-7856214D02*
X11933633Y-7837167D01*
X11952681Y-7827643D01*
X11981252Y-7827643D01*
X12000300Y-7837167D01*
X12009824Y-7856214D01*
X12009824Y-7960976D01*
X12105062Y-7960976D02*
X12105062Y-7827643D01*
X12105062Y-7846690D02*
X12114586Y-7837167D01*
X12133633Y-7827643D01*
X12162205Y-7827643D01*
X12181252Y-7837167D01*
X12190776Y-7856214D01*
X12190776Y-7960976D01*
X12190776Y-7856214D02*
X12200300Y-7837167D01*
X12219348Y-7827643D01*
X12247919Y-7827643D01*
X12266967Y-7837167D01*
X12276491Y-7856214D01*
X12276491Y-7960976D01*
X12666967Y-7751452D02*
X12495538Y-8008595D01*
X12924110Y-7760976D02*
X12943157Y-7760976D01*
X12962205Y-7770500D01*
X12971729Y-7780024D01*
X12981252Y-7799071D01*
X12990776Y-7837167D01*
X12990776Y-7884786D01*
X12981252Y-7922881D01*
X12971729Y-7941928D01*
X12962205Y-7951452D01*
X12943157Y-7960976D01*
X12924110Y-7960976D01*
X12905062Y-7951452D01*
X12895538Y-7941928D01*
X12886014Y-7922881D01*
X12876491Y-7884786D01*
X12876491Y-7837167D01*
X12886014Y-7799071D01*
X12895538Y-7780024D01*
X12905062Y-7770500D01*
X12924110Y-7760976D01*
X13076491Y-7941928D02*
X13086014Y-7951452D01*
X13076491Y-7960976D01*
X13066967Y-7951452D01*
X13076491Y-7941928D01*
X13076491Y-7960976D01*
X13209824Y-7760976D02*
X13228871Y-7760976D01*
X13247919Y-7770500D01*
X13257443Y-7780024D01*
X13266967Y-7799071D01*
X13276491Y-7837167D01*
X13276491Y-7884786D01*
X13266967Y-7922881D01*
X13257443Y-7941928D01*
X13247919Y-7951452D01*
X13228871Y-7960976D01*
X13209824Y-7960976D01*
X13190776Y-7951452D01*
X13181252Y-7941928D01*
X13171729Y-7922881D01*
X13162205Y-7884786D01*
X13162205Y-7837167D01*
X13171729Y-7799071D01*
X13181252Y-7780024D01*
X13190776Y-7770500D01*
X13209824Y-7760976D01*
X13343157Y-7760976D02*
X13466967Y-7760976D01*
X13400300Y-7837167D01*
X13428871Y-7837167D01*
X13447919Y-7846690D01*
X13457443Y-7856214D01*
X13466967Y-7875262D01*
X13466967Y-7922881D01*
X13457443Y-7941928D01*
X13447919Y-7951452D01*
X13428871Y-7960976D01*
X13371729Y-7960976D01*
X13352681Y-7951452D01*
X13343157Y-7941928D01*
X13657443Y-7960976D02*
X13543157Y-7960976D01*
X13600300Y-7960976D02*
X13600300Y-7760976D01*
X13581252Y-7789548D01*
X13562205Y-7808595D01*
X13543157Y-7818119D01*
X13838395Y-7760976D02*
X13743157Y-7760976D01*
X13733633Y-7856214D01*
X13743157Y-7846690D01*
X13762205Y-7837167D01*
X13809824Y-7837167D01*
X13828871Y-7846690D01*
X13838395Y-7856214D01*
X13847919Y-7875262D01*
X13847919Y-7922881D01*
X13838395Y-7941928D01*
X13828871Y-7951452D01*
X13809824Y-7960976D01*
X13762205Y-7960976D01*
X13743157Y-7951452D01*
X13733633Y-7941928D01*
X13924110Y-7760976D02*
X13924110Y-7799071D01*
X14000300Y-7760976D02*
X14000300Y-7799071D01*
X14295538Y-8037167D02*
X14286014Y-8027643D01*
X14266967Y-7999071D01*
X14257443Y-7980024D01*
X14247919Y-7951452D01*
X14238395Y-7903833D01*
X14238395Y-7865738D01*
X14247919Y-7818119D01*
X14257443Y-7789548D01*
X14266967Y-7770500D01*
X14286014Y-7741928D01*
X14295538Y-7732405D01*
X14466967Y-7760976D02*
X14371729Y-7760976D01*
X14362205Y-7856214D01*
X14371729Y-7846690D01*
X14390776Y-7837167D01*
X14438395Y-7837167D01*
X14457443Y-7846690D01*
X14466967Y-7856214D01*
X14476491Y-7875262D01*
X14476491Y-7922881D01*
X14466967Y-7941928D01*
X14457443Y-7951452D01*
X14438395Y-7960976D01*
X14390776Y-7960976D01*
X14371729Y-7951452D01*
X14362205Y-7941928D01*
X14600300Y-7760976D02*
X14619348Y-7760976D01*
X14638395Y-7770500D01*
X14647919Y-7780024D01*
X14657443Y-7799071D01*
X14666967Y-7837167D01*
X14666967Y-7884786D01*
X14657443Y-7922881D01*
X14647919Y-7941928D01*
X14638395Y-7951452D01*
X14619348Y-7960976D01*
X14600300Y-7960976D01*
X14581252Y-7951452D01*
X14571729Y-7941928D01*
X14562205Y-7922881D01*
X14552681Y-7884786D01*
X14552681Y-7837167D01*
X14562205Y-7799071D01*
X14571729Y-7780024D01*
X14581252Y-7770500D01*
X14600300Y-7760976D01*
X14905062Y-7960976D02*
X14905062Y-7760976D01*
X14990776Y-7960976D02*
X14990776Y-7856214D01*
X14981252Y-7837167D01*
X14962205Y-7827643D01*
X14933633Y-7827643D01*
X14914586Y-7837167D01*
X14905062Y-7846690D01*
X15114586Y-7960976D02*
X15095538Y-7951452D01*
X15086014Y-7941928D01*
X15076491Y-7922881D01*
X15076491Y-7865738D01*
X15086014Y-7846690D01*
X15095538Y-7837167D01*
X15114586Y-7827643D01*
X15143157Y-7827643D01*
X15162205Y-7837167D01*
X15171729Y-7846690D01*
X15181252Y-7865738D01*
X15181252Y-7922881D01*
X15171729Y-7941928D01*
X15162205Y-7951452D01*
X15143157Y-7960976D01*
X15114586Y-7960976D01*
X15295538Y-7960976D02*
X15276491Y-7951452D01*
X15266967Y-7932405D01*
X15266967Y-7760976D01*
X15447919Y-7951452D02*
X15428871Y-7960976D01*
X15390776Y-7960976D01*
X15371729Y-7951452D01*
X15362205Y-7932405D01*
X15362205Y-7856214D01*
X15371729Y-7837167D01*
X15390776Y-7827643D01*
X15428871Y-7827643D01*
X15447919Y-7837167D01*
X15457443Y-7856214D01*
X15457443Y-7875262D01*
X15362205Y-7894309D01*
X15533633Y-7951452D02*
X15552681Y-7960976D01*
X15590776Y-7960976D01*
X15609824Y-7951452D01*
X15619348Y-7932405D01*
X15619348Y-7922881D01*
X15609824Y-7903833D01*
X15590776Y-7894309D01*
X15562205Y-7894309D01*
X15543157Y-7884786D01*
X15533633Y-7865738D01*
X15533633Y-7856214D01*
X15543157Y-7837167D01*
X15562205Y-7827643D01*
X15590776Y-7827643D01*
X15609824Y-7837167D01*
X15686014Y-8037167D02*
X15695538Y-8027643D01*
X15714586Y-7999071D01*
X15724110Y-7980024D01*
X15733633Y-7951452D01*
X15743157Y-7903833D01*
X15743157Y-7865738D01*
X15733633Y-7818119D01*
X15724110Y-7789548D01*
X15714586Y-7770500D01*
X15695538Y-7741928D01*
X15686014Y-7732405D01*
D13*
X10723634Y-8134500D02*
G75*
G03*
X10723634Y-8134500I-45000J0D01*
G01*
D11*
X11019348Y-8024976D02*
X11038395Y-8024976D01*
X11057443Y-8034500D01*
X11066967Y-8044024D01*
X11076491Y-8063071D01*
X11086014Y-8101167D01*
X11086014Y-8148786D01*
X11076491Y-8186881D01*
X11066967Y-8205928D01*
X11057443Y-8215452D01*
X11038395Y-8224976D01*
X11019348Y-8224976D01*
X11000300Y-8215452D01*
X10990776Y-8205928D01*
X10981253Y-8186881D01*
X10971729Y-8148786D01*
X10971729Y-8101167D01*
X10981253Y-8063071D01*
X10990776Y-8044024D01*
X11000300Y-8034500D01*
X11019348Y-8024976D01*
X11171729Y-8205928D02*
X11181253Y-8215452D01*
X11171729Y-8224976D01*
X11162205Y-8215452D01*
X11171729Y-8205928D01*
X11171729Y-8224976D01*
X11276491Y-8224976D02*
X11314586Y-8224976D01*
X11333633Y-8215452D01*
X11343157Y-8205928D01*
X11362205Y-8177357D01*
X11371729Y-8139262D01*
X11371729Y-8063071D01*
X11362205Y-8044024D01*
X11352681Y-8034500D01*
X11333633Y-8024976D01*
X11295538Y-8024976D01*
X11276491Y-8034500D01*
X11266967Y-8044024D01*
X11257443Y-8063071D01*
X11257443Y-8110690D01*
X11266967Y-8129738D01*
X11276491Y-8139262D01*
X11295538Y-8148786D01*
X11333633Y-8148786D01*
X11352681Y-8139262D01*
X11362205Y-8129738D01*
X11371729Y-8110690D01*
X11495538Y-8024976D02*
X11514586Y-8024976D01*
X11533633Y-8034500D01*
X11543157Y-8044024D01*
X11552681Y-8063071D01*
X11562205Y-8101167D01*
X11562205Y-8148786D01*
X11552681Y-8186881D01*
X11543157Y-8205928D01*
X11533633Y-8215452D01*
X11514586Y-8224976D01*
X11495538Y-8224976D01*
X11476491Y-8215452D01*
X11466967Y-8205928D01*
X11457443Y-8186881D01*
X11447919Y-8148786D01*
X11447919Y-8101167D01*
X11457443Y-8063071D01*
X11466967Y-8044024D01*
X11476491Y-8034500D01*
X11495538Y-8024976D01*
X11686014Y-8024976D02*
X11705062Y-8024976D01*
X11724110Y-8034500D01*
X11733633Y-8044024D01*
X11743157Y-8063071D01*
X11752681Y-8101167D01*
X11752681Y-8148786D01*
X11743157Y-8186881D01*
X11733633Y-8205928D01*
X11724110Y-8215452D01*
X11705062Y-8224976D01*
X11686014Y-8224976D01*
X11666967Y-8215452D01*
X11657443Y-8205928D01*
X11647919Y-8186881D01*
X11638395Y-8148786D01*
X11638395Y-8101167D01*
X11647919Y-8063071D01*
X11657443Y-8044024D01*
X11666967Y-8034500D01*
X11686014Y-8024976D01*
X11838395Y-8224976D02*
X11838395Y-8091643D01*
X11838395Y-8110690D02*
X11847919Y-8101167D01*
X11866967Y-8091643D01*
X11895538Y-8091643D01*
X11914586Y-8101167D01*
X11924110Y-8120214D01*
X11924110Y-8224976D01*
X11924110Y-8120214D02*
X11933633Y-8101167D01*
X11952681Y-8091643D01*
X11981252Y-8091643D01*
X12000300Y-8101167D01*
X12009824Y-8120214D01*
X12009824Y-8224976D01*
X12105062Y-8224976D02*
X12105062Y-8091643D01*
X12105062Y-8110690D02*
X12114586Y-8101167D01*
X12133633Y-8091643D01*
X12162205Y-8091643D01*
X12181252Y-8101167D01*
X12190776Y-8120214D01*
X12190776Y-8224976D01*
X12190776Y-8120214D02*
X12200300Y-8101167D01*
X12219348Y-8091643D01*
X12247919Y-8091643D01*
X12266967Y-8101167D01*
X12276491Y-8120214D01*
X12276491Y-8224976D01*
X12666967Y-8015452D02*
X12495538Y-8272595D01*
X12924110Y-8024976D02*
X12943157Y-8024976D01*
X12962205Y-8034500D01*
X12971729Y-8044024D01*
X12981252Y-8063071D01*
X12990776Y-8101167D01*
X12990776Y-8148786D01*
X12981252Y-8186881D01*
X12971729Y-8205928D01*
X12962205Y-8215452D01*
X12943157Y-8224976D01*
X12924110Y-8224976D01*
X12905062Y-8215452D01*
X12895538Y-8205928D01*
X12886014Y-8186881D01*
X12876491Y-8148786D01*
X12876491Y-8101167D01*
X12886014Y-8063071D01*
X12895538Y-8044024D01*
X12905062Y-8034500D01*
X12924110Y-8024976D01*
X13076491Y-8205928D02*
X13086014Y-8215452D01*
X13076491Y-8224976D01*
X13066967Y-8215452D01*
X13076491Y-8205928D01*
X13076491Y-8224976D01*
X13209824Y-8024976D02*
X13228871Y-8024976D01*
X13247919Y-8034500D01*
X13257443Y-8044024D01*
X13266967Y-8063071D01*
X13276491Y-8101167D01*
X13276491Y-8148786D01*
X13266967Y-8186881D01*
X13257443Y-8205928D01*
X13247919Y-8215452D01*
X13228871Y-8224976D01*
X13209824Y-8224976D01*
X13190776Y-8215452D01*
X13181252Y-8205928D01*
X13171729Y-8186881D01*
X13162205Y-8148786D01*
X13162205Y-8101167D01*
X13171729Y-8063071D01*
X13181252Y-8044024D01*
X13190776Y-8034500D01*
X13209824Y-8024976D01*
X13343157Y-8024976D02*
X13466967Y-8024976D01*
X13400300Y-8101167D01*
X13428871Y-8101167D01*
X13447919Y-8110690D01*
X13457443Y-8120214D01*
X13466967Y-8139262D01*
X13466967Y-8186881D01*
X13457443Y-8205928D01*
X13447919Y-8215452D01*
X13428871Y-8224976D01*
X13371729Y-8224976D01*
X13352681Y-8215452D01*
X13343157Y-8205928D01*
X13647919Y-8024976D02*
X13552681Y-8024976D01*
X13543157Y-8120214D01*
X13552681Y-8110690D01*
X13571729Y-8101167D01*
X13619348Y-8101167D01*
X13638395Y-8110690D01*
X13647919Y-8120214D01*
X13657443Y-8139262D01*
X13657443Y-8186881D01*
X13647919Y-8205928D01*
X13638395Y-8215452D01*
X13619348Y-8224976D01*
X13571729Y-8224976D01*
X13552681Y-8215452D01*
X13543157Y-8205928D01*
X13828871Y-8091643D02*
X13828871Y-8224976D01*
X13781252Y-8015452D02*
X13733633Y-8158309D01*
X13857443Y-8158309D01*
X13924110Y-8024976D02*
X13924110Y-8063071D01*
X14000300Y-8024976D02*
X14000300Y-8063071D01*
X14295538Y-8301167D02*
X14286014Y-8291643D01*
X14266967Y-8263071D01*
X14257443Y-8244024D01*
X14247919Y-8215452D01*
X14238395Y-8167833D01*
X14238395Y-8129738D01*
X14247919Y-8082119D01*
X14257443Y-8053548D01*
X14266967Y-8034500D01*
X14286014Y-8005928D01*
X14295538Y-7996405D01*
X14352681Y-8024976D02*
X14476491Y-8024976D01*
X14409824Y-8101167D01*
X14438395Y-8101167D01*
X14457443Y-8110690D01*
X14466967Y-8120214D01*
X14476491Y-8139262D01*
X14476491Y-8186881D01*
X14466967Y-8205928D01*
X14457443Y-8215452D01*
X14438395Y-8224976D01*
X14381252Y-8224976D01*
X14362205Y-8215452D01*
X14352681Y-8205928D01*
X14552681Y-8044024D02*
X14562205Y-8034500D01*
X14581252Y-8024976D01*
X14628871Y-8024976D01*
X14647919Y-8034500D01*
X14657443Y-8044024D01*
X14666967Y-8063071D01*
X14666967Y-8082119D01*
X14657443Y-8110690D01*
X14543157Y-8224976D01*
X14666967Y-8224976D01*
X14905062Y-8224976D02*
X14905062Y-8024976D01*
X14990776Y-8224976D02*
X14990776Y-8120214D01*
X14981252Y-8101167D01*
X14962205Y-8091643D01*
X14933633Y-8091643D01*
X14914586Y-8101167D01*
X14905062Y-8110690D01*
X15114586Y-8224976D02*
X15095538Y-8215452D01*
X15086014Y-8205928D01*
X15076491Y-8186881D01*
X15076491Y-8129738D01*
X15086014Y-8110690D01*
X15095538Y-8101167D01*
X15114586Y-8091643D01*
X15143157Y-8091643D01*
X15162205Y-8101167D01*
X15171729Y-8110690D01*
X15181252Y-8129738D01*
X15181252Y-8186881D01*
X15171729Y-8205928D01*
X15162205Y-8215452D01*
X15143157Y-8224976D01*
X15114586Y-8224976D01*
X15295538Y-8224976D02*
X15276491Y-8215452D01*
X15266967Y-8196405D01*
X15266967Y-8024976D01*
X15447919Y-8215452D02*
X15428871Y-8224976D01*
X15390776Y-8224976D01*
X15371729Y-8215452D01*
X15362205Y-8196405D01*
X15362205Y-8120214D01*
X15371729Y-8101167D01*
X15390776Y-8091643D01*
X15428871Y-8091643D01*
X15447919Y-8101167D01*
X15457443Y-8120214D01*
X15457443Y-8139262D01*
X15362205Y-8158309D01*
X15533633Y-8215452D02*
X15552681Y-8224976D01*
X15590776Y-8224976D01*
X15609824Y-8215452D01*
X15619348Y-8196405D01*
X15619348Y-8186881D01*
X15609824Y-8167833D01*
X15590776Y-8158309D01*
X15562205Y-8158309D01*
X15543157Y-8148786D01*
X15533633Y-8129738D01*
X15533633Y-8120214D01*
X15543157Y-8101167D01*
X15562205Y-8091643D01*
X15590776Y-8091643D01*
X15609824Y-8101167D01*
X15686014Y-8301167D02*
X15695538Y-8291643D01*
X15714586Y-8263071D01*
X15724110Y-8244024D01*
X15733633Y-8215452D01*
X15743157Y-8167833D01*
X15743157Y-8129738D01*
X15733633Y-8082119D01*
X15724110Y-8053548D01*
X15714586Y-8034500D01*
X15695538Y-8005928D01*
X15686014Y-7996405D01*
X10623634Y-8298500D02*
X10623634Y-8498500D01*
X10523634Y-8398500D02*
X10723634Y-8398500D01*
X10971729Y-8308024D02*
X10981253Y-8298500D01*
X11000300Y-8288976D01*
X11047919Y-8288976D01*
X11066967Y-8298500D01*
X11076491Y-8308024D01*
X11086014Y-8327071D01*
X11086014Y-8346119D01*
X11076491Y-8374690D01*
X10962205Y-8488976D01*
X11086014Y-8488976D01*
X11171729Y-8469929D02*
X11181253Y-8479452D01*
X11171729Y-8488976D01*
X11162205Y-8479452D01*
X11171729Y-8469929D01*
X11171729Y-8488976D01*
X11295538Y-8374690D02*
X11276491Y-8365167D01*
X11266967Y-8355643D01*
X11257443Y-8336595D01*
X11257443Y-8327071D01*
X11266967Y-8308024D01*
X11276491Y-8298500D01*
X11295538Y-8288976D01*
X11333633Y-8288976D01*
X11352681Y-8298500D01*
X11362205Y-8308024D01*
X11371729Y-8327071D01*
X11371729Y-8336595D01*
X11362205Y-8355643D01*
X11352681Y-8365167D01*
X11333633Y-8374690D01*
X11295538Y-8374690D01*
X11276491Y-8384214D01*
X11266967Y-8393738D01*
X11257443Y-8412786D01*
X11257443Y-8450881D01*
X11266967Y-8469929D01*
X11276491Y-8479452D01*
X11295538Y-8488976D01*
X11333633Y-8488976D01*
X11352681Y-8479452D01*
X11362205Y-8469929D01*
X11371729Y-8450881D01*
X11371729Y-8412786D01*
X11362205Y-8393738D01*
X11352681Y-8384214D01*
X11333633Y-8374690D01*
X11495538Y-8288976D02*
X11514586Y-8288976D01*
X11533633Y-8298500D01*
X11543157Y-8308024D01*
X11552681Y-8327071D01*
X11562205Y-8365167D01*
X11562205Y-8412786D01*
X11552681Y-8450881D01*
X11543157Y-8469929D01*
X11533633Y-8479452D01*
X11514586Y-8488976D01*
X11495538Y-8488976D01*
X11476491Y-8479452D01*
X11466967Y-8469929D01*
X11457443Y-8450881D01*
X11447919Y-8412786D01*
X11447919Y-8365167D01*
X11457443Y-8327071D01*
X11466967Y-8308024D01*
X11476491Y-8298500D01*
X11495538Y-8288976D01*
X11686014Y-8288976D02*
X11705062Y-8288976D01*
X11724110Y-8298500D01*
X11733633Y-8308024D01*
X11743157Y-8327071D01*
X11752681Y-8365167D01*
X11752681Y-8412786D01*
X11743157Y-8450881D01*
X11733633Y-8469929D01*
X11724110Y-8479452D01*
X11705062Y-8488976D01*
X11686014Y-8488976D01*
X11666967Y-8479452D01*
X11657443Y-8469929D01*
X11647919Y-8450881D01*
X11638395Y-8412786D01*
X11638395Y-8365167D01*
X11647919Y-8327071D01*
X11657443Y-8308024D01*
X11666967Y-8298500D01*
X11686014Y-8288976D01*
X11838395Y-8488976D02*
X11838395Y-8355643D01*
X11838395Y-8374690D02*
X11847919Y-8365167D01*
X11866967Y-8355643D01*
X11895538Y-8355643D01*
X11914586Y-8365167D01*
X11924110Y-8384214D01*
X11924110Y-8488976D01*
X11924110Y-8384214D02*
X11933633Y-8365167D01*
X11952681Y-8355643D01*
X11981252Y-8355643D01*
X12000300Y-8365167D01*
X12009824Y-8384214D01*
X12009824Y-8488976D01*
X12105062Y-8488976D02*
X12105062Y-8355643D01*
X12105062Y-8374690D02*
X12114586Y-8365167D01*
X12133633Y-8355643D01*
X12162205Y-8355643D01*
X12181252Y-8365167D01*
X12190776Y-8384214D01*
X12190776Y-8488976D01*
X12190776Y-8384214D02*
X12200300Y-8365167D01*
X12219348Y-8355643D01*
X12247919Y-8355643D01*
X12266967Y-8365167D01*
X12276491Y-8384214D01*
X12276491Y-8488976D01*
X12666967Y-8279452D02*
X12495538Y-8536595D01*
X12924110Y-8288976D02*
X12943157Y-8288976D01*
X12962205Y-8298500D01*
X12971729Y-8308024D01*
X12981252Y-8327071D01*
X12990776Y-8365167D01*
X12990776Y-8412786D01*
X12981252Y-8450881D01*
X12971729Y-8469929D01*
X12962205Y-8479452D01*
X12943157Y-8488976D01*
X12924110Y-8488976D01*
X12905062Y-8479452D01*
X12895538Y-8469929D01*
X12886014Y-8450881D01*
X12876491Y-8412786D01*
X12876491Y-8365167D01*
X12886014Y-8327071D01*
X12895538Y-8308024D01*
X12905062Y-8298500D01*
X12924110Y-8288976D01*
X13076491Y-8469929D02*
X13086014Y-8479452D01*
X13076491Y-8488976D01*
X13066967Y-8479452D01*
X13076491Y-8469929D01*
X13076491Y-8488976D01*
X13276491Y-8488976D02*
X13162205Y-8488976D01*
X13219348Y-8488976D02*
X13219348Y-8288976D01*
X13200300Y-8317548D01*
X13181252Y-8336595D01*
X13162205Y-8346119D01*
X13466967Y-8488976D02*
X13352681Y-8488976D01*
X13409824Y-8488976D02*
X13409824Y-8288976D01*
X13390776Y-8317548D01*
X13371729Y-8336595D01*
X13352681Y-8346119D01*
X13590776Y-8288976D02*
X13609824Y-8288976D01*
X13628871Y-8298500D01*
X13638395Y-8308024D01*
X13647919Y-8327071D01*
X13657443Y-8365167D01*
X13657443Y-8412786D01*
X13647919Y-8450881D01*
X13638395Y-8469929D01*
X13628871Y-8479452D01*
X13609824Y-8488976D01*
X13590776Y-8488976D01*
X13571729Y-8479452D01*
X13562205Y-8469929D01*
X13552681Y-8450881D01*
X13543157Y-8412786D01*
X13543157Y-8365167D01*
X13552681Y-8327071D01*
X13562205Y-8308024D01*
X13571729Y-8298500D01*
X13590776Y-8288976D01*
X13733633Y-8308024D02*
X13743157Y-8298500D01*
X13762205Y-8288976D01*
X13809824Y-8288976D01*
X13828871Y-8298500D01*
X13838395Y-8308024D01*
X13847919Y-8327071D01*
X13847919Y-8346119D01*
X13838395Y-8374690D01*
X13724110Y-8488976D01*
X13847919Y-8488976D01*
X13924110Y-8288976D02*
X13924110Y-8327071D01*
X14000300Y-8288976D02*
X14000300Y-8327071D01*
X14295538Y-8565167D02*
X14286014Y-8555643D01*
X14266967Y-8527071D01*
X14257443Y-8508024D01*
X14247919Y-8479452D01*
X14238395Y-8431833D01*
X14238395Y-8393738D01*
X14247919Y-8346119D01*
X14257443Y-8317548D01*
X14266967Y-8298500D01*
X14286014Y-8269928D01*
X14295538Y-8260405D01*
X14362205Y-8308024D02*
X14371729Y-8298500D01*
X14390776Y-8288976D01*
X14438395Y-8288976D01*
X14457443Y-8298500D01*
X14466967Y-8308024D01*
X14476491Y-8327071D01*
X14476491Y-8346119D01*
X14466967Y-8374690D01*
X14352681Y-8488976D01*
X14476491Y-8488976D01*
X14714586Y-8488976D02*
X14714586Y-8288976D01*
X14800300Y-8488976D02*
X14800300Y-8384214D01*
X14790776Y-8365167D01*
X14771729Y-8355643D01*
X14743157Y-8355643D01*
X14724110Y-8365167D01*
X14714586Y-8374690D01*
X14924110Y-8488976D02*
X14905062Y-8479452D01*
X14895538Y-8469929D01*
X14886014Y-8450881D01*
X14886014Y-8393738D01*
X14895538Y-8374690D01*
X14905062Y-8365167D01*
X14924110Y-8355643D01*
X14952681Y-8355643D01*
X14971729Y-8365167D01*
X14981252Y-8374690D01*
X14990776Y-8393738D01*
X14990776Y-8450881D01*
X14981252Y-8469929D01*
X14971729Y-8479452D01*
X14952681Y-8488976D01*
X14924110Y-8488976D01*
X15105062Y-8488976D02*
X15086014Y-8479452D01*
X15076491Y-8460405D01*
X15076491Y-8288976D01*
X15257443Y-8479452D02*
X15238395Y-8488976D01*
X15200300Y-8488976D01*
X15181252Y-8479452D01*
X15171729Y-8460405D01*
X15171729Y-8384214D01*
X15181252Y-8365167D01*
X15200300Y-8355643D01*
X15238395Y-8355643D01*
X15257443Y-8365167D01*
X15266967Y-8384214D01*
X15266967Y-8403262D01*
X15171729Y-8422310D01*
X15343157Y-8479452D02*
X15362205Y-8488976D01*
X15400300Y-8488976D01*
X15419348Y-8479452D01*
X15428871Y-8460405D01*
X15428871Y-8450881D01*
X15419348Y-8431833D01*
X15400300Y-8422310D01*
X15371729Y-8422310D01*
X15352681Y-8412786D01*
X15343157Y-8393738D01*
X15343157Y-8384214D01*
X15352681Y-8365167D01*
X15371729Y-8355643D01*
X15400300Y-8355643D01*
X15419348Y-8365167D01*
X15495538Y-8565167D02*
X15505062Y-8555643D01*
X15524110Y-8527071D01*
X15533633Y-8508024D01*
X15543157Y-8479452D01*
X15552681Y-8431833D01*
X15552681Y-8393738D01*
X15543157Y-8346119D01*
X15533633Y-8317548D01*
X15524110Y-8298500D01*
X15505062Y-8269928D01*
X15495538Y-8260405D01*
M02*
