%TF.GenerationSoftware,KiCad,Pcbnew,(6.0.11)*%
%TF.CreationDate,2024-01-05T21:55:00+00:00*%
%TF.ProjectId,RJ21_RJ45_4_LINE,524a3231-5f52-44a3-9435-5f345f4c494e,rev?*%
%TF.SameCoordinates,Original*%
%TF.FileFunction,Copper,L1,Top*%
%TF.FilePolarity,Positive*%
%FSLAX46Y46*%
G04 Gerber Fmt 4.6, Leading zero omitted, Abs format (unit mm)*
G04 Created by KiCad (PCBNEW (6.0.11)) date 2024-01-05 21:55:00*
%MOMM*%
%LPD*%
G01*
G04 APERTURE LIST*
%TA.AperFunction,WasherPad*%
%ADD10C,3.650000*%
%TD*%
%TA.AperFunction,ComponentPad*%
%ADD11R,1.500000X1.500000*%
%TD*%
%TA.AperFunction,ComponentPad*%
%ADD12C,1.500000*%
%TD*%
%TA.AperFunction,ComponentPad*%
%ADD13C,4.500000*%
%TD*%
%TA.AperFunction,Conductor*%
%ADD14C,0.200000*%
%TD*%
G04 APERTURE END LIST*
D10*
%TO.P,J3,*%
%TO.N,*%
X146160749Y-66450000D03*
X134730749Y-66450000D03*
D11*
%TO.P,J3,1*%
%TO.N,unconnected-(J3-Pad1)*%
X136000749Y-60100000D03*
D12*
%TO.P,J3,2*%
%TO.N,unconnected-(J3-Pad2)*%
X137270749Y-57560000D03*
%TO.P,J3,3*%
%TO.N,unconnected-(J3-Pad3)*%
X138540749Y-60100000D03*
%TO.P,J3,4*%
%TO.N,/L4-*%
X139810749Y-57560000D03*
%TO.P,J3,5*%
%TO.N,/L4+*%
X141080749Y-60100000D03*
%TO.P,J3,6*%
%TO.N,unconnected-(J3-Pad6)*%
X142350749Y-57560000D03*
%TO.P,J3,7*%
%TO.N,unconnected-(J3-Pad7)*%
X143620749Y-60100000D03*
%TO.P,J3,8*%
%TO.N,unconnected-(J3-Pad8)*%
X144890749Y-57560000D03*
%TD*%
D10*
%TO.P,J1,*%
%TO.N,*%
X168882417Y-66450000D03*
X180312417Y-66450000D03*
D11*
%TO.P,J1,1*%
%TO.N,unconnected-(J1-Pad1)*%
X170152417Y-60100000D03*
D12*
%TO.P,J1,2*%
%TO.N,unconnected-(J1-Pad2)*%
X171422417Y-57560000D03*
%TO.P,J1,3*%
%TO.N,unconnected-(J1-Pad3)*%
X172692417Y-60100000D03*
%TO.P,J1,4*%
%TO.N,/L2-*%
X173962417Y-57560000D03*
%TO.P,J1,5*%
%TO.N,/L2+*%
X175232417Y-60100000D03*
%TO.P,J1,6*%
%TO.N,unconnected-(J1-Pad6)*%
X176502417Y-57560000D03*
%TO.P,J1,7*%
%TO.N,unconnected-(J1-Pad7)*%
X177772417Y-60100000D03*
%TO.P,J1,8*%
%TO.N,unconnected-(J1-Pad8)*%
X179042417Y-57560000D03*
%TD*%
D10*
%TO.P,J2,*%
%TO.N,*%
X152004917Y-66450000D03*
X163434917Y-66450000D03*
D11*
%TO.P,J2,1*%
%TO.N,unconnected-(J2-Pad1)*%
X153274917Y-60100000D03*
D12*
%TO.P,J2,2*%
%TO.N,unconnected-(J2-Pad2)*%
X154544917Y-57560000D03*
%TO.P,J2,3*%
%TO.N,unconnected-(J2-Pad3)*%
X155814917Y-60100000D03*
%TO.P,J2,4*%
%TO.N,/L3-*%
X157084917Y-57560000D03*
%TO.P,J2,5*%
%TO.N,/L3+*%
X158354917Y-60100000D03*
%TO.P,J2,6*%
%TO.N,unconnected-(J2-Pad6)*%
X159624917Y-57560000D03*
%TO.P,J2,7*%
%TO.N,unconnected-(J2-Pad7)*%
X160894917Y-60100000D03*
%TO.P,J2,8*%
%TO.N,unconnected-(J2-Pad8)*%
X162164917Y-57560000D03*
%TD*%
D10*
%TO.P,J4,*%
%TO.N,*%
X117456583Y-66450000D03*
X128886583Y-66450000D03*
D11*
%TO.P,J4,1*%
%TO.N,unconnected-(J4-Pad1)*%
X118726583Y-60100000D03*
D12*
%TO.P,J4,2*%
%TO.N,unconnected-(J4-Pad2)*%
X119996583Y-57560000D03*
%TO.P,J4,3*%
%TO.N,unconnected-(J4-Pad3)*%
X121266583Y-60100000D03*
%TO.P,J4,4*%
%TO.N,/L5-*%
X122536583Y-57560000D03*
%TO.P,J4,5*%
%TO.N,/L5+*%
X123806583Y-60100000D03*
%TO.P,J4,6*%
%TO.N,unconnected-(J4-Pad6)*%
X125076583Y-57560000D03*
%TO.P,J4,7*%
%TO.N,unconnected-(J4-Pad7)*%
X126346583Y-60100000D03*
%TO.P,J4,8*%
%TO.N,unconnected-(J4-Pad8)*%
X127616583Y-57560000D03*
%TD*%
D13*
%TO.P,J7,*%
%TO.N,*%
X186189797Y-50333602D03*
X111339797Y-50333602D03*
D12*
%TO.P,J7,1,Pin_1*%
%TO.N,unconnected-(J7-Pad1)*%
X174684839Y-52478607D03*
%TO.P,J7,2,Pin_2*%
%TO.N,/L2-*%
X172524835Y-52478607D03*
%TO.P,J7,3,Pin_3*%
%TO.N,/L3-*%
X170364832Y-52478607D03*
%TO.P,J7,4,Pin_4*%
%TO.N,/L4-*%
X168204836Y-52478607D03*
%TO.P,J7,5,Pin_5*%
%TO.N,/L5-*%
X166044832Y-52478607D03*
%TO.P,J7,6,Pin_6*%
%TO.N,unconnected-(J7-Pad6)*%
X163884828Y-52478607D03*
%TO.P,J7,7,Pin_7*%
%TO.N,unconnected-(J7-Pad7)*%
X161724825Y-52478607D03*
%TO.P,J7,8,Pin_8*%
%TO.N,unconnected-(J7-Pad8)*%
X159564821Y-52478607D03*
%TO.P,J7,9,Pin_9*%
%TO.N,unconnected-(J7-Pad9)*%
X157404829Y-52478607D03*
%TO.P,J7,10,Pin_10*%
%TO.N,unconnected-(J7-Pad10)*%
X155244818Y-52478607D03*
%TO.P,J7,11,Pin_11*%
%TO.N,unconnected-(J7-Pad11)*%
X153084822Y-52478607D03*
%TO.P,J7,12,Pin_12*%
%TO.N,unconnected-(J7-Pad12)*%
X150924803Y-52478607D03*
%TO.P,J7,13,Pin_13*%
%TO.N,unconnected-(J7-Pad13)*%
X148764799Y-52478607D03*
%TO.P,J7,14,Pin_14*%
%TO.N,unconnected-(J7-Pad14)*%
X146604795Y-52478607D03*
%TO.P,J7,15,Pin_15*%
%TO.N,unconnected-(J7-Pad15)*%
X144444792Y-52478607D03*
%TO.P,J7,16,Pin_16*%
%TO.N,unconnected-(J7-Pad16)*%
X142284788Y-52478607D03*
%TO.P,J7,17,Pin_17*%
%TO.N,unconnected-(J7-Pad17)*%
X140124784Y-52478607D03*
%TO.P,J7,18,Pin_18*%
%TO.N,unconnected-(J7-Pad18)*%
X137964781Y-52478607D03*
%TO.P,J7,19,Pin_19*%
%TO.N,unconnected-(J7-Pad19)*%
X135804777Y-52478607D03*
%TO.P,J7,20,Pin_20*%
%TO.N,unconnected-(J7-Pad20)*%
X133644773Y-52478607D03*
%TO.P,J7,21,Pin_21*%
%TO.N,unconnected-(J7-Pad21)*%
X131484766Y-52478607D03*
%TO.P,J7,22,Pin_22*%
%TO.N,unconnected-(J7-Pad22)*%
X129324762Y-52478607D03*
%TO.P,J7,23,Pin_23*%
%TO.N,unconnected-(J7-Pad23)*%
X127164758Y-52478607D03*
%TO.P,J7,24,Pin_24*%
%TO.N,unconnected-(J7-Pad24)*%
X125004755Y-52478607D03*
%TO.P,J7,25,Pin_25*%
%TO.N,unconnected-(J7-Pad25)*%
X122844751Y-52478607D03*
%TO.P,J7,26,Pin_26*%
%TO.N,unconnected-(J7-Pad26)*%
X174684839Y-48188606D03*
%TO.P,J7,27,Pin_27*%
%TO.N,/L2+*%
X172524835Y-48188606D03*
%TO.P,J7,28,Pin_28*%
%TO.N,/L3+*%
X170364832Y-48188606D03*
%TO.P,J7,29,Pin_29*%
%TO.N,/L4+*%
X168204836Y-48188606D03*
%TO.P,J7,30,Pin_30*%
%TO.N,/L5+*%
X166044832Y-48188606D03*
%TO.P,J7,31,Pin_31*%
%TO.N,unconnected-(J7-Pad31)*%
X163884828Y-48188606D03*
%TO.P,J7,32,Pin_32*%
%TO.N,unconnected-(J7-Pad32)*%
X161724825Y-48188606D03*
%TO.P,J7,33,Pin_33*%
%TO.N,unconnected-(J7-Pad33)*%
X159564821Y-48188606D03*
%TO.P,J7,34,Pin_34*%
%TO.N,unconnected-(J7-Pad34)*%
X157404829Y-48188606D03*
%TO.P,J7,35,Pin_35*%
%TO.N,unconnected-(J7-Pad35)*%
X155244818Y-48188606D03*
%TO.P,J7,36,Pin_36*%
%TO.N,unconnected-(J7-Pad36)*%
X153084822Y-48188606D03*
%TO.P,J7,37,Pin_37*%
%TO.N,unconnected-(J7-Pad37)*%
X150924803Y-48188606D03*
%TO.P,J7,38,Pin_38*%
%TO.N,unconnected-(J7-Pad38)*%
X148764799Y-48188606D03*
%TO.P,J7,39,Pin_39*%
%TO.N,unconnected-(J7-Pad39)*%
X146604795Y-48188606D03*
%TO.P,J7,40,Pin_40*%
%TO.N,unconnected-(J7-Pad40)*%
X144444792Y-48188606D03*
%TO.P,J7,41,Pin_41*%
%TO.N,unconnected-(J7-Pad41)*%
X142284788Y-48188606D03*
%TO.P,J7,42,Pin_42*%
%TO.N,unconnected-(J7-Pad42)*%
X140124784Y-48188606D03*
%TO.P,J7,43,Pin_43*%
%TO.N,unconnected-(J7-Pad43)*%
X137964781Y-48188606D03*
%TO.P,J7,44,Pin_44*%
%TO.N,unconnected-(J7-Pad44)*%
X135804777Y-48188606D03*
%TO.P,J7,45,Pin_45*%
%TO.N,unconnected-(J7-Pad45)*%
X133644773Y-48188606D03*
%TO.P,J7,46,Pin_46*%
%TO.N,unconnected-(J7-Pad46)*%
X131484766Y-48188606D03*
%TO.P,J7,47,Pin_47*%
%TO.N,unconnected-(J7-Pad47)*%
X129324762Y-48188606D03*
%TO.P,J7,48,Pin_48*%
%TO.N,unconnected-(J7-Pad48)*%
X127164758Y-48188606D03*
%TO.P,J7,49,Pin_49*%
%TO.N,unconnected-(J7-Pad49)*%
X125004755Y-48188606D03*
%TO.P,J7,50,Pin_50*%
%TO.N,unconnected-(J7-Pad50)*%
X122844751Y-48188606D03*
%TD*%
D14*
%TO.N,/L2-*%
X172524835Y-52478607D02*
X172524835Y-56122418D01*
X172524835Y-56122418D02*
X173962417Y-57560000D01*
%TO.N,/L3-*%
X166333439Y-56510000D02*
X158134917Y-56510000D01*
X170364832Y-52478607D02*
X166333439Y-56510000D01*
X158134917Y-56510000D02*
X157084917Y-57560000D01*
%TO.N,/L4-*%
X168204836Y-54035164D02*
X166130000Y-56110000D01*
X168204836Y-52478607D02*
X168204836Y-54035164D01*
X166130000Y-56110000D02*
X141260749Y-56110000D01*
X141260749Y-56110000D02*
X139810749Y-57560000D01*
%TO.N,/L5-*%
X124426583Y-55670000D02*
X122536583Y-57560000D01*
X166044832Y-55085168D02*
X165460000Y-55670000D01*
X166044832Y-52478607D02*
X166044832Y-55085168D01*
X165460000Y-55670000D02*
X124426583Y-55670000D01*
%TD*%
M02*
