M48
; DRILL file {KiCad (6.0.11)} date Fri Jan  5 21:54:56 2024
; FORMAT={-:-/ absolute / metric / decimal}
; #@! TF.CreationDate,2024-01-05T21:54:56+00:00
; #@! TF.GenerationSoftware,Kicad,Pcbnew,(6.0.11)
; #@! TF.FileFunction,Plated,1,2,PTH
FMAT,2
METRIC
; #@! TA.AperFunction,Plated,PTH,ComponentDrill
T1C0.800
; #@! TA.AperFunction,Plated,PTH,ComponentDrill
T2C0.900
; #@! TA.AperFunction,Plated,PTH,ComponentDrill
T3C2.800
%
G90
G05
T1
X122.845Y-48.189
X122.845Y-52.479
X125.005Y-48.189
X125.005Y-52.479
X127.165Y-48.189
X127.165Y-52.479
X129.325Y-48.189
X129.325Y-52.479
X131.485Y-48.189
X131.485Y-52.479
X133.645Y-48.189
X133.645Y-52.479
X135.805Y-48.189
X135.805Y-52.479
X137.965Y-48.189
X137.965Y-52.479
X140.125Y-48.189
X140.125Y-52.479
X142.285Y-48.189
X142.285Y-52.479
X144.445Y-48.189
X144.445Y-52.479
X146.605Y-48.189
X146.605Y-52.479
X148.765Y-48.189
X148.765Y-52.479
X150.925Y-48.189
X150.925Y-52.479
X153.085Y-48.189
X153.085Y-52.479
X155.245Y-48.189
X155.245Y-52.479
X157.405Y-48.189
X157.405Y-52.479
X159.565Y-48.189
X159.565Y-52.479
X161.725Y-48.189
X161.725Y-52.479
X163.885Y-48.189
X163.885Y-52.479
X166.045Y-48.189
X166.045Y-52.479
X168.205Y-48.189
X168.205Y-52.479
X170.365Y-48.189
X170.365Y-52.479
X172.525Y-48.189
X172.525Y-52.479
X174.685Y-48.189
X174.685Y-52.479
T2
X118.727Y-60.1
X119.997Y-57.56
X121.267Y-60.1
X122.537Y-57.56
X123.807Y-60.1
X125.077Y-57.56
X126.347Y-60.1
X127.617Y-57.56
X136.001Y-60.1
X137.271Y-57.56
X138.541Y-60.1
X139.811Y-57.56
X141.081Y-60.1
X142.351Y-57.56
X143.621Y-60.1
X144.891Y-57.56
X153.275Y-60.1
X154.545Y-57.56
X155.815Y-60.1
X157.085Y-57.56
X158.355Y-60.1
X159.625Y-57.56
X160.895Y-60.1
X162.165Y-57.56
X170.152Y-60.1
X171.422Y-57.56
X172.692Y-60.1
X173.962Y-57.56
X175.232Y-60.1
X176.502Y-57.56
X177.772Y-60.1
X179.042Y-57.56
T3
X111.34Y-50.334
X186.19Y-50.334
T0
M30
