%TF.GenerationSoftware,KiCad,Pcbnew,(6.0.11)*%
%TF.CreationDate,2024-01-05T21:55:00+00:00*%
%TF.ProjectId,RJ21_RJ45_4_LINE,524a3231-5f52-44a3-9435-5f345f4c494e,rev?*%
%TF.SameCoordinates,Original*%
%TF.FileFunction,Legend,Bot*%
%TF.FilePolarity,Positive*%
%FSLAX46Y46*%
G04 Gerber Fmt 4.6, Leading zero omitted, Abs format (unit mm)*
G04 Created by KiCad (PCBNEW (6.0.11)) date 2024-01-05 21:55:00*
%MOMM*%
%LPD*%
G01*
G04 APERTURE LIST*
%ADD10C,0.400000*%
%ADD11C,0.010000*%
%ADD12C,3.650000*%
%ADD13R,1.500000X1.500000*%
%ADD14C,1.500000*%
%ADD15C,4.500000*%
G04 APERTURE END LIST*
D10*
X182195571Y-44364761D02*
X183338428Y-44364761D01*
X182767000Y-44364761D02*
X182767000Y-42364761D01*
X182957476Y-42650476D01*
X183147952Y-42840952D01*
X183338428Y-42936190D01*
X181338428Y-44174285D02*
X181243190Y-44269523D01*
X181338428Y-44364761D01*
X181433666Y-44269523D01*
X181338428Y-44174285D01*
X181338428Y-44364761D01*
X181338428Y-43126666D02*
X181243190Y-43221904D01*
X181338428Y-43317142D01*
X181433666Y-43221904D01*
X181338428Y-43126666D01*
X181338428Y-43317142D01*
X178957476Y-42555238D02*
X178862238Y-42460000D01*
X178671761Y-42364761D01*
X178195571Y-42364761D01*
X178005095Y-42460000D01*
X177909857Y-42555238D01*
X177814619Y-42745714D01*
X177814619Y-42936190D01*
X177909857Y-43221904D01*
X179052714Y-44364761D01*
X177814619Y-44364761D01*
X173814619Y-44364761D02*
X173909857Y-44364761D01*
X174100333Y-44269523D01*
X174386047Y-43983809D01*
X174862238Y-43412380D01*
X175052714Y-43126666D01*
X175147952Y-42840952D01*
X175147952Y-42650476D01*
X175052714Y-42460000D01*
X174862238Y-42364761D01*
X174767000Y-42364761D01*
X174576523Y-42460000D01*
X174481285Y-42650476D01*
X174481285Y-42745714D01*
X174576523Y-42936190D01*
X174671761Y-43031428D01*
X175243190Y-43412380D01*
X175338428Y-43507619D01*
X175433666Y-43698095D01*
X175433666Y-43983809D01*
X175338428Y-44174285D01*
X175243190Y-44269523D01*
X175052714Y-44364761D01*
X174767000Y-44364761D01*
X174576523Y-44269523D01*
X174481285Y-44174285D01*
X174195571Y-43793333D01*
X174100333Y-43507619D01*
X174100333Y-43317142D01*
X171528904Y-42555238D02*
X171433666Y-42460000D01*
X171243190Y-42364761D01*
X170767000Y-42364761D01*
X170576523Y-42460000D01*
X170481285Y-42555238D01*
X170386047Y-42745714D01*
X170386047Y-42936190D01*
X170481285Y-43221904D01*
X171624142Y-44364761D01*
X170386047Y-44364761D01*
X169719380Y-42364761D02*
X168386047Y-42364761D01*
X169243190Y-44364761D01*
X167528904Y-44269523D02*
X167528904Y-44364761D01*
X167624142Y-44555238D01*
X167719380Y-44650476D01*
X165243190Y-42555238D02*
X165147952Y-42460000D01*
X164957476Y-42364761D01*
X164481285Y-42364761D01*
X164290809Y-42460000D01*
X164195571Y-42555238D01*
X164100333Y-42745714D01*
X164100333Y-42936190D01*
X164195571Y-43221904D01*
X165338428Y-44364761D01*
X164100333Y-44364761D01*
X163243190Y-44174285D02*
X163147952Y-44269523D01*
X163243190Y-44364761D01*
X163338428Y-44269523D01*
X163243190Y-44174285D01*
X163243190Y-44364761D01*
X163243190Y-43126666D02*
X163147952Y-43221904D01*
X163243190Y-43317142D01*
X163338428Y-43221904D01*
X163243190Y-43126666D01*
X163243190Y-43317142D01*
X160957476Y-42364761D02*
X159719380Y-42364761D01*
X160386047Y-43126666D01*
X160100333Y-43126666D01*
X159909857Y-43221904D01*
X159814619Y-43317142D01*
X159719380Y-43507619D01*
X159719380Y-43983809D01*
X159814619Y-44174285D01*
X159909857Y-44269523D01*
X160100333Y-44364761D01*
X160671761Y-44364761D01*
X160862238Y-44269523D01*
X160957476Y-44174285D01*
X155719380Y-44364761D02*
X155814619Y-44364761D01*
X156005095Y-44269523D01*
X156290809Y-43983809D01*
X156767000Y-43412380D01*
X156957476Y-43126666D01*
X157052714Y-42840952D01*
X157052714Y-42650476D01*
X156957476Y-42460000D01*
X156767000Y-42364761D01*
X156671761Y-42364761D01*
X156481285Y-42460000D01*
X156386047Y-42650476D01*
X156386047Y-42745714D01*
X156481285Y-42936190D01*
X156576523Y-43031428D01*
X157147952Y-43412380D01*
X157243190Y-43507619D01*
X157338428Y-43698095D01*
X157338428Y-43983809D01*
X157243190Y-44174285D01*
X157147952Y-44269523D01*
X156957476Y-44364761D01*
X156671761Y-44364761D01*
X156481285Y-44269523D01*
X156386047Y-44174285D01*
X156100333Y-43793333D01*
X156005095Y-43507619D01*
X156005095Y-43317142D01*
X153433666Y-42555238D02*
X153338428Y-42460000D01*
X153147952Y-42364761D01*
X152671761Y-42364761D01*
X152481285Y-42460000D01*
X152386047Y-42555238D01*
X152290809Y-42745714D01*
X152290809Y-42936190D01*
X152386047Y-43221904D01*
X153528904Y-44364761D01*
X152290809Y-44364761D01*
X151147952Y-43221904D02*
X151338428Y-43126666D01*
X151433666Y-43031428D01*
X151528904Y-42840952D01*
X151528904Y-42745714D01*
X151433666Y-42555238D01*
X151338428Y-42460000D01*
X151147952Y-42364761D01*
X150767000Y-42364761D01*
X150576523Y-42460000D01*
X150481285Y-42555238D01*
X150386047Y-42745714D01*
X150386047Y-42840952D01*
X150481285Y-43031428D01*
X150576523Y-43126666D01*
X150767000Y-43221904D01*
X151147952Y-43221904D01*
X151338428Y-43317142D01*
X151433666Y-43412380D01*
X151528904Y-43602857D01*
X151528904Y-43983809D01*
X151433666Y-44174285D01*
X151338428Y-44269523D01*
X151147952Y-44364761D01*
X150767000Y-44364761D01*
X150576523Y-44269523D01*
X150481285Y-44174285D01*
X150386047Y-43983809D01*
X150386047Y-43602857D01*
X150481285Y-43412380D01*
X150576523Y-43317142D01*
X150767000Y-43221904D01*
X149433666Y-44269523D02*
X149433666Y-44364761D01*
X149528904Y-44555238D01*
X149624142Y-44650476D01*
X147243190Y-42364761D02*
X146005095Y-42364761D01*
X146671761Y-43126666D01*
X146386047Y-43126666D01*
X146195571Y-43221904D01*
X146100333Y-43317142D01*
X146005095Y-43507619D01*
X146005095Y-43983809D01*
X146100333Y-44174285D01*
X146195571Y-44269523D01*
X146386047Y-44364761D01*
X146957476Y-44364761D01*
X147147952Y-44269523D01*
X147243190Y-44174285D01*
X145147952Y-44174285D02*
X145052714Y-44269523D01*
X145147952Y-44364761D01*
X145243190Y-44269523D01*
X145147952Y-44174285D01*
X145147952Y-44364761D01*
X145147952Y-43126666D02*
X145052714Y-43221904D01*
X145147952Y-43317142D01*
X145243190Y-43221904D01*
X145147952Y-43126666D01*
X145147952Y-43317142D01*
X141814619Y-43031428D02*
X141814619Y-44364761D01*
X142290809Y-42269523D02*
X142767000Y-43698095D01*
X141528904Y-43698095D01*
X137624142Y-44364761D02*
X137719380Y-44364761D01*
X137909857Y-44269523D01*
X138195571Y-43983809D01*
X138671761Y-43412380D01*
X138862238Y-43126666D01*
X138957476Y-42840952D01*
X138957476Y-42650476D01*
X138862238Y-42460000D01*
X138671761Y-42364761D01*
X138576523Y-42364761D01*
X138386047Y-42460000D01*
X138290809Y-42650476D01*
X138290809Y-42745714D01*
X138386047Y-42936190D01*
X138481285Y-43031428D01*
X139052714Y-43412380D01*
X139147952Y-43507619D01*
X139243190Y-43698095D01*
X139243190Y-43983809D01*
X139147952Y-44174285D01*
X139052714Y-44269523D01*
X138862238Y-44364761D01*
X138576523Y-44364761D01*
X138386047Y-44269523D01*
X138290809Y-44174285D01*
X138005095Y-43793333D01*
X137909857Y-43507619D01*
X137909857Y-43317142D01*
X135338428Y-42555238D02*
X135243190Y-42460000D01*
X135052714Y-42364761D01*
X134576523Y-42364761D01*
X134386047Y-42460000D01*
X134290809Y-42555238D01*
X134195571Y-42745714D01*
X134195571Y-42936190D01*
X134290809Y-43221904D01*
X135433666Y-44364761D01*
X134195571Y-44364761D01*
X133243190Y-44364761D02*
X132862238Y-44364761D01*
X132671761Y-44269523D01*
X132576523Y-44174285D01*
X132386047Y-43888571D01*
X132290809Y-43507619D01*
X132290809Y-42745714D01*
X132386047Y-42555238D01*
X132481285Y-42460000D01*
X132671761Y-42364761D01*
X133052714Y-42364761D01*
X133243190Y-42460000D01*
X133338428Y-42555238D01*
X133433666Y-42745714D01*
X133433666Y-43221904D01*
X133338428Y-43412380D01*
X133243190Y-43507619D01*
X133052714Y-43602857D01*
X132671761Y-43602857D01*
X132481285Y-43507619D01*
X132386047Y-43412380D01*
X132290809Y-43221904D01*
X131338428Y-44269523D02*
X131338428Y-44364761D01*
X131433666Y-44555238D01*
X131528904Y-44650476D01*
X128100333Y-43031428D02*
X128100333Y-44364761D01*
X128576523Y-42269523D02*
X129052714Y-43698095D01*
X127814619Y-43698095D01*
X127052714Y-44174285D02*
X126957476Y-44269523D01*
X127052714Y-44364761D01*
X127147952Y-44269523D01*
X127052714Y-44174285D01*
X127052714Y-44364761D01*
X127052714Y-43126666D02*
X126957476Y-43221904D01*
X127052714Y-43317142D01*
X127147952Y-43221904D01*
X127052714Y-43126666D01*
X127052714Y-43317142D01*
X123624142Y-42364761D02*
X124576523Y-42364761D01*
X124671761Y-43317142D01*
X124576523Y-43221904D01*
X124386047Y-43126666D01*
X123909857Y-43126666D01*
X123719380Y-43221904D01*
X123624142Y-43317142D01*
X123528904Y-43507619D01*
X123528904Y-43983809D01*
X123624142Y-44174285D01*
X123719380Y-44269523D01*
X123909857Y-44364761D01*
X124386047Y-44364761D01*
X124576523Y-44269523D01*
X124671761Y-44174285D01*
X119528904Y-44364761D02*
X119624142Y-44364761D01*
X119814619Y-44269523D01*
X120100333Y-43983809D01*
X120576523Y-43412380D01*
X120767000Y-43126666D01*
X120862238Y-42840952D01*
X120862238Y-42650476D01*
X120767000Y-42460000D01*
X120576523Y-42364761D01*
X120481285Y-42364761D01*
X120290809Y-42460000D01*
X120195571Y-42650476D01*
X120195571Y-42745714D01*
X120290809Y-42936190D01*
X120386047Y-43031428D01*
X120957476Y-43412380D01*
X121052714Y-43507619D01*
X121147952Y-43698095D01*
X121147952Y-43983809D01*
X121052714Y-44174285D01*
X120957476Y-44269523D01*
X120767000Y-44364761D01*
X120481285Y-44364761D01*
X120290809Y-44269523D01*
X120195571Y-44174285D01*
X119909857Y-43793333D01*
X119814619Y-43507619D01*
X119814619Y-43317142D01*
X117338428Y-42364761D02*
X116100333Y-42364761D01*
X116767000Y-43126666D01*
X116481285Y-43126666D01*
X116290809Y-43221904D01*
X116195571Y-43317142D01*
X116100333Y-43507619D01*
X116100333Y-43983809D01*
X116195571Y-44174285D01*
X116290809Y-44269523D01*
X116481285Y-44364761D01*
X117052714Y-44364761D01*
X117243190Y-44269523D01*
X117338428Y-44174285D01*
X114862238Y-42364761D02*
X114671761Y-42364761D01*
X114481285Y-42460000D01*
X114386047Y-42555238D01*
X114290809Y-42745714D01*
X114195571Y-43126666D01*
X114195571Y-43602857D01*
X114290809Y-43983809D01*
X114386047Y-44174285D01*
X114481285Y-44269523D01*
X114671761Y-44364761D01*
X114862238Y-44364761D01*
X115052714Y-44269523D01*
X115147952Y-44174285D01*
X115243190Y-43983809D01*
X115338428Y-43602857D01*
X115338428Y-43126666D01*
X115243190Y-42745714D01*
X115147952Y-42555238D01*
X115052714Y-42460000D01*
X114862238Y-42364761D01*
X179719380Y-70944285D02*
X179814619Y-71039523D01*
X180100333Y-71134761D01*
X180290809Y-71134761D01*
X180576523Y-71039523D01*
X180767000Y-70849047D01*
X180862238Y-70658571D01*
X180957476Y-70277619D01*
X180957476Y-69991904D01*
X180862238Y-69610952D01*
X180767000Y-69420476D01*
X180576523Y-69230000D01*
X180290809Y-69134761D01*
X180100333Y-69134761D01*
X179814619Y-69230000D01*
X179719380Y-69325238D01*
X178005095Y-69801428D02*
X178005095Y-71134761D01*
X178862238Y-69801428D02*
X178862238Y-70849047D01*
X178767000Y-71039523D01*
X178576523Y-71134761D01*
X178290809Y-71134761D01*
X178100333Y-71039523D01*
X178005095Y-70944285D01*
X177338428Y-69134761D02*
X176195571Y-69134761D01*
X176767000Y-71134761D02*
X176767000Y-69134761D01*
X175528904Y-70087142D02*
X174862238Y-70087142D01*
X174576523Y-71134761D02*
X175528904Y-71134761D01*
X175528904Y-69134761D01*
X174576523Y-69134761D01*
X172767000Y-71134761D02*
X173719380Y-71134761D01*
X173719380Y-69134761D01*
X169433666Y-71134761D02*
X170100333Y-70182380D01*
X170576523Y-71134761D02*
X170576523Y-69134761D01*
X169814619Y-69134761D01*
X169624142Y-69230000D01*
X169528904Y-69325238D01*
X169433666Y-69515714D01*
X169433666Y-69801428D01*
X169528904Y-69991904D01*
X169624142Y-70087142D01*
X169814619Y-70182380D01*
X170576523Y-70182380D01*
X168005095Y-69134761D02*
X168005095Y-70563333D01*
X168100333Y-70849047D01*
X168290809Y-71039523D01*
X168576523Y-71134761D01*
X168767000Y-71134761D01*
X167147952Y-69325238D02*
X167052714Y-69230000D01*
X166862238Y-69134761D01*
X166386047Y-69134761D01*
X166195571Y-69230000D01*
X166100333Y-69325238D01*
X166005095Y-69515714D01*
X166005095Y-69706190D01*
X166100333Y-69991904D01*
X167243190Y-71134761D01*
X166005095Y-71134761D01*
X164100333Y-71134761D02*
X165243190Y-71134761D01*
X164671761Y-71134761D02*
X164671761Y-69134761D01*
X164862238Y-69420476D01*
X165052714Y-69610952D01*
X165243190Y-69706190D01*
X163719380Y-71325238D02*
X162195571Y-71325238D01*
X160576523Y-71134761D02*
X161243190Y-70182380D01*
X161719380Y-71134761D02*
X161719380Y-69134761D01*
X160957476Y-69134761D01*
X160767000Y-69230000D01*
X160671761Y-69325238D01*
X160576523Y-69515714D01*
X160576523Y-69801428D01*
X160671761Y-69991904D01*
X160767000Y-70087142D01*
X160957476Y-70182380D01*
X161719380Y-70182380D01*
X159147952Y-69134761D02*
X159147952Y-70563333D01*
X159243190Y-70849047D01*
X159433666Y-71039523D01*
X159719380Y-71134761D01*
X159909857Y-71134761D01*
X157338428Y-69801428D02*
X157338428Y-71134761D01*
X157814619Y-69039523D02*
X158290809Y-70468095D01*
X157052714Y-70468095D01*
X155338428Y-69134761D02*
X156290809Y-69134761D01*
X156386047Y-70087142D01*
X156290809Y-69991904D01*
X156100333Y-69896666D01*
X155624142Y-69896666D01*
X155433666Y-69991904D01*
X155338428Y-70087142D01*
X155243190Y-70277619D01*
X155243190Y-70753809D01*
X155338428Y-70944285D01*
X155433666Y-71039523D01*
X155624142Y-71134761D01*
X156100333Y-71134761D01*
X156290809Y-71039523D01*
X156386047Y-70944285D01*
X154862238Y-71325238D02*
X153338428Y-71325238D01*
X152005095Y-69801428D02*
X152005095Y-71134761D01*
X152481285Y-69039523D02*
X152957476Y-70468095D01*
X151719380Y-70468095D01*
X151433666Y-71325238D02*
X149909857Y-71325238D01*
X148481285Y-71134761D02*
X149433666Y-71134761D01*
X149433666Y-69134761D01*
X147814619Y-71134761D02*
X147814619Y-69134761D01*
X146862238Y-71134761D02*
X146862238Y-69134761D01*
X145719380Y-71134761D01*
X145719380Y-69134761D01*
X144767000Y-70087142D02*
X144100333Y-70087142D01*
X143814619Y-71134761D02*
X144767000Y-71134761D01*
X144767000Y-69134761D01*
X143814619Y-69134761D01*
X143433666Y-71325238D02*
X141909857Y-71325238D01*
X140767000Y-70087142D02*
X140481285Y-70182380D01*
X140386047Y-70277619D01*
X140290809Y-70468095D01*
X140290809Y-70753809D01*
X140386047Y-70944285D01*
X140481285Y-71039523D01*
X140671761Y-71134761D01*
X141433666Y-71134761D01*
X141433666Y-69134761D01*
X140767000Y-69134761D01*
X140576523Y-69230000D01*
X140481285Y-69325238D01*
X140386047Y-69515714D01*
X140386047Y-69706190D01*
X140481285Y-69896666D01*
X140576523Y-69991904D01*
X140767000Y-70087142D01*
X141433666Y-70087142D01*
X138290809Y-71134761D02*
X138957476Y-70182380D01*
X139433666Y-71134761D02*
X139433666Y-69134761D01*
X138671761Y-69134761D01*
X138481285Y-69230000D01*
X138386047Y-69325238D01*
X138290809Y-69515714D01*
X138290809Y-69801428D01*
X138386047Y-69991904D01*
X138481285Y-70087142D01*
X138671761Y-70182380D01*
X139433666Y-70182380D01*
X137433666Y-70087142D02*
X136767000Y-70087142D01*
X136481285Y-71134761D02*
X137433666Y-71134761D01*
X137433666Y-69134761D01*
X136481285Y-69134761D01*
X135719380Y-70563333D02*
X134767000Y-70563333D01*
X135909857Y-71134761D02*
X135243190Y-69134761D01*
X134576523Y-71134761D01*
X133909857Y-71134761D02*
X133909857Y-69134761D01*
X132767000Y-71134761D02*
X133624142Y-69991904D01*
X132767000Y-69134761D02*
X133909857Y-70277619D01*
X131528904Y-69134761D02*
X131147952Y-69134761D01*
X130957476Y-69230000D01*
X130767000Y-69420476D01*
X130671761Y-69801428D01*
X130671761Y-70468095D01*
X130767000Y-70849047D01*
X130957476Y-71039523D01*
X131147952Y-71134761D01*
X131528904Y-71134761D01*
X131719380Y-71039523D01*
X131909857Y-70849047D01*
X132005095Y-70468095D01*
X132005095Y-69801428D01*
X131909857Y-69420476D01*
X131719380Y-69230000D01*
X131528904Y-69134761D01*
X129814619Y-69134761D02*
X129814619Y-70753809D01*
X129719380Y-70944285D01*
X129624142Y-71039523D01*
X129433666Y-71134761D01*
X129052714Y-71134761D01*
X128862238Y-71039523D01*
X128767000Y-70944285D01*
X128671761Y-70753809D01*
X128671761Y-69134761D01*
X128005095Y-69134761D02*
X126862238Y-69134761D01*
X127433666Y-71134761D02*
X127433666Y-69134761D01*
X124100333Y-71896666D02*
X124195571Y-71801428D01*
X124386047Y-71515714D01*
X124481285Y-71325238D01*
X124576523Y-71039523D01*
X124671761Y-70563333D01*
X124671761Y-70182380D01*
X124576523Y-69706190D01*
X124481285Y-69420476D01*
X124386047Y-69230000D01*
X124195571Y-68944285D01*
X124100333Y-68849047D01*
X123528904Y-69801428D02*
X123052714Y-71134761D01*
X122576523Y-69801428D01*
X121433666Y-69134761D02*
X121243190Y-69134761D01*
X121052714Y-69230000D01*
X120957476Y-69325238D01*
X120862238Y-69515714D01*
X120767000Y-69896666D01*
X120767000Y-70372857D01*
X120862238Y-70753809D01*
X120957476Y-70944285D01*
X121052714Y-71039523D01*
X121243190Y-71134761D01*
X121433666Y-71134761D01*
X121624142Y-71039523D01*
X121719380Y-70944285D01*
X121814619Y-70753809D01*
X121909857Y-70372857D01*
X121909857Y-69896666D01*
X121814619Y-69515714D01*
X121719380Y-69325238D01*
X121624142Y-69230000D01*
X121433666Y-69134761D01*
X119909857Y-70944285D02*
X119814619Y-71039523D01*
X119909857Y-71134761D01*
X120005095Y-71039523D01*
X119909857Y-70944285D01*
X119909857Y-71134761D01*
X117909857Y-71134761D02*
X119052714Y-71134761D01*
X118481285Y-71134761D02*
X118481285Y-69134761D01*
X118671761Y-69420476D01*
X118862238Y-69610952D01*
X119052714Y-69706190D01*
X117243190Y-71896666D02*
X117147952Y-71801428D01*
X116957476Y-71515714D01*
X116862238Y-71325238D01*
X116767000Y-71039523D01*
X116671761Y-70563333D01*
X116671761Y-70182380D01*
X116767000Y-69706190D01*
X116862238Y-69420476D01*
X116957476Y-69230000D01*
X117147952Y-68944285D01*
X117243190Y-68849047D01*
%TO.C,J7*%
G36*
X190274967Y-39474100D02*
G01*
X190274967Y-54798767D01*
X107259300Y-54798767D01*
X107259300Y-54565934D01*
X107470967Y-54565934D01*
X190042134Y-54565934D01*
X190042134Y-39685767D01*
X107470967Y-39685767D01*
X107470967Y-54565934D01*
X107259300Y-54565934D01*
X107259300Y-39474100D01*
X190274967Y-39474100D01*
G37*
D11*
X190274967Y-39474100D02*
X190274967Y-54798767D01*
X107259300Y-54798767D01*
X107259300Y-54565934D01*
X107470967Y-54565934D01*
X190042134Y-54565934D01*
X190042134Y-39685767D01*
X107470967Y-39685767D01*
X107470967Y-54565934D01*
X107259300Y-54565934D01*
X107259300Y-39474100D01*
X190274967Y-39474100D01*
%TD*%
D12*
%TO.C,J3*%
X146160749Y-66450000D03*
X134730749Y-66450000D03*
%TD*%
%TO.C,J1*%
X168882417Y-66450000D03*
X180312417Y-66450000D03*
%TD*%
%TO.C,J2*%
X152004917Y-66450000D03*
X163434917Y-66450000D03*
%TD*%
%TO.C,J4*%
X117456583Y-66450000D03*
X128886583Y-66450000D03*
%TD*%
%LPC*%
%TO.C,J3*%
X146160749Y-66450000D03*
X134730749Y-66450000D03*
D13*
X136000749Y-60100000D03*
D14*
X137270749Y-57560000D03*
X138540749Y-60100000D03*
X139810749Y-57560000D03*
X141080749Y-60100000D03*
X142350749Y-57560000D03*
X143620749Y-60100000D03*
X144890749Y-57560000D03*
%TD*%
D12*
%TO.C,J1*%
X168882417Y-66450000D03*
X180312417Y-66450000D03*
D13*
X170152417Y-60100000D03*
D14*
X171422417Y-57560000D03*
X172692417Y-60100000D03*
X173962417Y-57560000D03*
X175232417Y-60100000D03*
X176502417Y-57560000D03*
X177772417Y-60100000D03*
X179042417Y-57560000D03*
%TD*%
D12*
%TO.C,J2*%
X152004917Y-66450000D03*
X163434917Y-66450000D03*
D13*
X153274917Y-60100000D03*
D14*
X154544917Y-57560000D03*
X155814917Y-60100000D03*
X157084917Y-57560000D03*
X158354917Y-60100000D03*
X159624917Y-57560000D03*
X160894917Y-60100000D03*
X162164917Y-57560000D03*
%TD*%
D12*
%TO.C,J4*%
X117456583Y-66450000D03*
X128886583Y-66450000D03*
D13*
X118726583Y-60100000D03*
D14*
X119996583Y-57560000D03*
X121266583Y-60100000D03*
X122536583Y-57560000D03*
X123806583Y-60100000D03*
X125076583Y-57560000D03*
X126346583Y-60100000D03*
X127616583Y-57560000D03*
%TD*%
D15*
%TO.C,J7*%
X186189797Y-50333602D03*
X111339797Y-50333602D03*
D14*
X174684839Y-52478607D03*
X172524835Y-52478607D03*
X170364832Y-52478607D03*
X168204836Y-52478607D03*
X166044832Y-52478607D03*
X163884828Y-52478607D03*
X161724825Y-52478607D03*
X159564821Y-52478607D03*
X157404829Y-52478607D03*
X155244818Y-52478607D03*
X153084822Y-52478607D03*
X150924803Y-52478607D03*
X148764799Y-52478607D03*
X146604795Y-52478607D03*
X144444792Y-52478607D03*
X142284788Y-52478607D03*
X140124784Y-52478607D03*
X137964781Y-52478607D03*
X135804777Y-52478607D03*
X133644773Y-52478607D03*
X131484766Y-52478607D03*
X129324762Y-52478607D03*
X127164758Y-52478607D03*
X125004755Y-52478607D03*
X122844751Y-52478607D03*
X174684839Y-48188606D03*
X172524835Y-48188606D03*
X170364832Y-48188606D03*
X168204836Y-48188606D03*
X166044832Y-48188606D03*
X163884828Y-48188606D03*
X161724825Y-48188606D03*
X159564821Y-48188606D03*
X157404829Y-48188606D03*
X155244818Y-48188606D03*
X153084822Y-48188606D03*
X150924803Y-48188606D03*
X148764799Y-48188606D03*
X146604795Y-48188606D03*
X144444792Y-48188606D03*
X142284788Y-48188606D03*
X140124784Y-48188606D03*
X137964781Y-48188606D03*
X135804777Y-48188606D03*
X133644773Y-48188606D03*
X131484766Y-48188606D03*
X129324762Y-48188606D03*
X127164758Y-48188606D03*
X125004755Y-48188606D03*
X122844751Y-48188606D03*
%TD*%
M02*
